<svg width="26" height="26" viewBox="0 0 26 26" fill="none" xmlns="http://www.w3.org/2000/svg">
<path d="M1 25H25" stroke="#266AD2" stroke-width="1.25" stroke-linecap="round" stroke-linejoin="round"/>
<path d="M5.16938 24.9999V22.3333C5.16938 22.1918 5.11441 22.0562 5.01656 21.9561C4.91872 21.8561 4.78601 21.7999 4.64764 21.7999H2.56068C2.42231 21.7999 2.2896 21.8561 2.19175 21.9561C2.09391 22.0562 2.03894 22.1918 2.03894 22.3333V24.9999" stroke="#266AD2" stroke-width="1.25" stroke-linecap="round" stroke-linejoin="round"/>
<path d="M11.4305 25V18.0667C11.4305 17.9252 11.3755 17.7896 11.2777 17.6895C11.1798 17.5895 11.0471 17.5333 10.9087 17.5333H8.82179C8.68341 17.5333 8.55071 17.5895 8.45286 17.6895C8.35502 17.7896 8.30005 17.9252 8.30005 18.0667V25" stroke="#266AD2" stroke-width="1.25" stroke-linecap="round" stroke-linejoin="round"/>
<path d="M17.6915 24.9999V13.7999C17.6915 13.6585 17.6365 13.5228 17.5387 13.4228C17.4408 13.3228 17.3081 13.2666 17.1697 13.2666H15.0828C14.9444 13.2666 14.8117 13.3228 14.7138 13.4228C14.616 13.5228 14.561 13.6585 14.561 13.7999V24.9999" stroke="#266AD2" stroke-width="1.25" stroke-linecap="round" stroke-linejoin="round"/>
<path d="M23.9523 25V9.53333C23.9523 9.39188 23.8974 9.25623 23.7995 9.15621C23.7017 9.05619 23.569 9 23.4306 9H21.3436C21.2053 9 21.0726 9.05619 20.9747 9.15621C20.8769 9.25623 20.8219 9.39188 20.8219 9.53333V25" stroke="#266AD2" stroke-width="1.25" stroke-linecap="round" stroke-linejoin="round"/>
<path d="M3.60779 14.3333L22.3904 1.53333" stroke="#266AD2" stroke-width="1.25" stroke-linecap="round" stroke-linejoin="round"/>
<path d="M21.8696 5.8L22.3913 1.53333L18.2174 1" stroke="#266AD2" stroke-width="1.25" stroke-linecap="round" stroke-linejoin="round"/>
</svg>
