<?xml version="1.0" encoding="utf-8"?>
<!-- Generator: Adobe Illustrator 19.0.0, SVG Export Plug-In . SVG Version: 6.00 Build 0)  -->
<svg version="1.1" id="Layer_1" xmlns="http://www.w3.org/2000/svg" xmlns:xlink="http://www.w3.org/1999/xlink" x="0px" y="0px"
	 viewBox="-258 339.1 762.2 122.9" style="enable-background:new -258 339.1 762.2 122.9;" xml:space="preserve">
<style type="text/css">
	.st0{fill:#434343;}
	.st1{fill:#373E64;}
	.st2{enable-background:new    ;}
</style>
<g>
	<g>
		<path class="st0" d="M-103.5,422.5h21.9v3.7h-17.9v9.1H-83v3.5h-16.5V449h18.2v3.6h-22.2V422.5z"/>
		<path class="st0" d="M-76.3,422.5h3.8v4.2h-3.8V422.5z M-76.3,430.8h3.8v21.9h-3.8V430.8z"/>
		<path class="st0" d="M-66.8,430.7h3.5v3.1c1-1.3,2.1-2.2,3.3-2.8s2.5-0.8,3.9-0.8c3.1,0,5.2,1.1,6.3,3.3c0.6,1.2,0.9,2.9,0.9,5.1
			v14.1h-3.8v-13.8c0-1.3-0.2-2.4-0.6-3.2c-0.7-1.4-1.8-2.1-3.6-2.1c-0.9,0-1.6,0.1-2.2,0.3c-1,0.3-1.9,0.9-2.7,1.8
			c-0.6,0.7-1,1.5-1.2,2.2c-0.2,0.8-0.3,1.9-0.3,3.3v11.5h-3.5V430.7z"/>
		<path class="st0" d="M-41.7,424c0.9-1.3,2.5-1.9,5-1.9c0.2,0,0.5,0,0.7,0s0.5,0,0.8,0.1v3.4c-0.4,0-0.7,0-0.8-0.1s-0.3,0-0.5,0
			c-1.1,0-1.8,0.3-2,0.9s-0.3,2.1-0.3,4.4h3.7v2.9h-3.7v18.9h-3.7v-18.9h-3.1v-2.9h3.1v-3.4C-42.4,425.8-42.2,424.7-41.7,424z"/>
		<path class="st0" d="M-19.9,439.4c0.8-0.1,1.4-0.5,1.7-1.1c0.2-0.3,0.2-0.8,0.2-1.4c0-1.3-0.4-2.2-1.3-2.7
			c-0.9-0.6-2.2-0.9-3.8-0.9c-1.9,0-3.3,0.5-4.1,1.6c-0.5,0.6-0.7,1.4-0.9,2.6h-3.4c0.1-2.7,0.9-4.6,2.6-5.7
			c1.7-1.1,3.6-1.6,5.9-1.6c2.6,0,4.7,0.5,6.3,1.5s2.4,2.5,2.4,4.6V449c0,0.4,0.1,0.7,0.2,0.9c0.2,0.2,0.5,0.3,1,0.3
			c0.2,0,0.3,0,0.6,0s0.4-0.1,0.7-0.1v2.7c-0.6,0.2-1,0.3-1.3,0.3s-0.7,0.1-1.2,0.1c-1.3,0-2.2-0.5-2.8-1.4c-0.3-0.5-0.5-1.2-0.6-2
			c-0.8,1-1.8,1.8-3.2,2.6c-1.4,0.7-3,1.1-4.7,1.1c-2,0-3.7-0.6-5-1.9c-1.3-1.2-1.9-2.8-1.9-4.6c0-2,0.6-3.6,1.9-4.7
			c1.3-1.1,2.9-1.8,5-2.1L-19.9,439.4z M-27.6,449.4c0.8,0.6,1.7,0.9,2.8,0.9c1.3,0,2.6-0.3,3.8-0.9c2.1-1,3.1-2.6,3.1-4.9v-3
			c-0.5,0.3-1,0.5-1.7,0.7s-1.4,0.3-2.1,0.4l-2.2,0.3c-1.3,0.2-2.3,0.5-3,0.8c-1.1,0.6-1.7,1.7-1.7,3.1
			C-28.8,447.9-28.4,448.7-27.6,449.4z"/>
		<path class="st0" d="M6.3,431.9c1.6,1.2,2.5,3.3,2.8,6.2H5.5c-0.2-1.4-0.7-2.5-1.5-3.4s-2-1.3-3.8-1.3c-2.4,0-4,1.1-5,3.4
			c-0.7,1.5-1,3.3-1,5.5s0.5,4,1.4,5.6c0.9,1.5,2.4,2.3,4.4,2.3c1.5,0,2.7-0.5,3.6-1.4s1.5-2.2,1.9-3.8h3.6c-0.4,2.9-1.4,5-3.1,6.4
			s-3.7,2-6.3,2c-2.9,0-5.2-1-6.9-3.1s-2.6-4.7-2.6-7.9c0-3.9,0.9-6.9,2.8-9s4.3-3.2,7.2-3.2C2.7,430.1,4.8,430.7,6.3,431.9z"/>
		<path class="st0" d="M12.9,422.4h3.7v11.2c0.9-1.1,1.7-1.9,2.4-2.3c1.2-0.8,2.7-1.2,4.5-1.2c3.2,0,5.3,1.1,6.5,3.3
			c0.6,1.2,0.9,2.9,0.9,5.1v14.1h-3.8v-13.8c0-1.6-0.2-2.8-0.6-3.5c-0.7-1.2-1.9-1.8-3.8-1.8c-1.5,0-2.9,0.5-4.2,1.6s-1.9,3-1.9,6
			v11.6h-3.7V422.4z"/>
		<path class="st0" d="M49.9,431.3c1.5,0.7,2.6,1.7,3.3,2.8c0.7,1.1,1.2,2.4,1.5,3.9c0.2,1,0.3,2.6,0.3,4.8H39
			c0.1,2.2,0.6,4,1.6,5.4s2.5,2,4.5,2c1.9,0,3.4-0.6,4.6-1.9c0.6-0.7,1.1-1.6,1.4-2.6h3.6c-0.1,0.8-0.4,1.7-1,2.7
			c-0.5,1-1.1,1.8-1.8,2.4c-1.1,1.1-2.5,1.8-4.1,2.2c-0.9,0.2-1.9,0.3-3,0.3c-2.7,0-5-1-6.9-3s-2.8-4.8-2.8-8.4c0-3.5,1-6.4,2.9-8.6
			s4.4-3.3,7.5-3.3C46.9,430.2,48.4,430.6,49.9,431.3z M51.2,439.9c-0.1-1.6-0.5-2.9-1-3.8c-1-1.8-2.7-2.7-5-2.7
			c-1.7,0-3.1,0.6-4.2,1.8c-1.1,1.2-1.7,2.8-1.8,4.7H51.2z"/>
		<path class="st0" d="M62,445.8c0.1,1.2,0.4,2.2,0.9,2.8c0.9,1.2,2.6,1.8,4.9,1.8c1.4,0,2.6-0.3,3.7-0.9c1.1-0.6,1.6-1.5,1.6-2.8
			c0-0.9-0.4-1.7-1.3-2.2c-0.5-0.3-1.6-0.6-3.2-1l-3-0.7c-1.9-0.5-3.3-1-4.2-1.6c-1.6-1-2.4-2.4-2.4-4.1c0-2.1,0.8-3.8,2.3-5
			c1.5-1.3,3.6-1.9,6.1-1.9c3.4,0,5.8,1,7.3,2.9c0.9,1.2,1.4,2.6,1.4,4h-3.5c-0.1-0.8-0.4-1.6-0.9-2.3c-0.9-1-2.4-1.4-4.5-1.4
			c-1.4,0-2.5,0.3-3.2,0.8c-0.7,0.5-1.1,1.2-1.1,2.1c0,1,0.5,1.7,1.4,2.3c0.6,0.3,1.4,0.6,2.5,0.9l2.5,0.6c2.7,0.6,4.5,1.3,5.4,1.9
			c1.4,0.9,2.2,2.4,2.2,4.5c0,2-0.8,3.6-2.3,5.1s-3.8,2.1-6.9,2.1c-3.3,0-5.7-0.7-7-2.2c-1.4-1.5-2.1-3.3-2.2-5.5H62V445.8z"/>
		<path class="st0" d="M93.1,422.5h4v14.7l15.1-14.7h5.7L105,434.7l13.1,18h-5.3L102,437.6l-4.9,4.6v10.5h-4L93.1,422.5L93.1,422.5z
			"/>
		<path class="st0" d="M136.6,432.9c1.9,1.9,2.9,4.7,2.9,8.3c0,3.5-0.9,6.5-2.6,8.8c-1.7,2.3-4.4,3.5-8,3.5c-3,0-5.4-1-7.1-3.1
			c-1.8-2-2.6-4.8-2.6-8.2c0-3.7,0.9-6.6,2.8-8.8c1.9-2.2,4.4-3.3,7.5-3.3C132.3,430.1,134.7,431,136.6,432.9z M134.3,447.5
			c0.9-1.9,1.3-3.9,1.3-6.2c0-2-0.3-3.7-1-5c-1-2-2.8-3-5.3-3c-2.2,0-3.9,0.9-4.9,2.6s-1.5,3.8-1.5,6.2c0,2.3,0.5,4.3,1.5,5.8
			c1,1.6,2.6,2.3,4.8,2.3C131.8,450.3,133.4,449.3,134.3,447.5z"/>
		<path class="st0" d="M144.1,430.7h3.5v3.1c1-1.3,2.1-2.2,3.3-2.8s2.5-0.8,3.9-0.8c3.1,0,5.2,1.1,6.3,3.3c0.6,1.2,0.9,2.9,0.9,5.1
			v14.1h-3.8v-13.8c0-1.3-0.2-2.4-0.6-3.2c-0.7-1.4-1.8-2.1-3.6-2.1c-0.9,0-1.6,0.1-2.2,0.3c-1,0.3-1.9,0.9-2.7,1.8
			c-0.6,0.7-1,1.5-1.2,2.2c-0.2,0.8-0.3,1.9-0.3,3.3v11.5h-3.7v-22H144.1z"/>
		<path class="st0" d="M168.3,424.6h3.7v6.1h3.5v3H172V448c0,0.8,0.3,1.3,0.8,1.5c0.3,0.2,0.8,0.2,1.4,0.2c0.2,0,0.4,0,0.6,0
			s0.4,0,0.7-0.1v2.9c-0.4,0.1-0.9,0.2-1.3,0.3c-0.5,0.1-1,0.1-1.5,0.1c-1.7,0-2.9-0.4-3.5-1.3s-0.9-2-0.9-3.4v-14.5h-3v-3h3V424.6
			L168.3,424.6z"/>
		<path class="st0" d="M191.1,439.4c0.8-0.1,1.4-0.5,1.7-1.1c0.2-0.3,0.2-0.8,0.2-1.4c0-1.3-0.4-2.2-1.3-2.7
			c-0.9-0.6-2.2-0.9-3.8-0.9c-1.9,0-3.3,0.5-4.1,1.6c-0.4,0.6-0.7,1.4-0.9,2.6h-3.4c0.1-2.7,0.9-4.6,2.6-5.7s3.6-1.6,5.9-1.6
			c2.6,0,4.7,0.5,6.3,1.5c1.6,1,2.4,2.5,2.4,4.6V449c0,0.4,0.1,0.7,0.2,0.9c0.2,0.2,0.5,0.3,1,0.3c0.2,0,0.3,0,0.6,0
			s0.4-0.1,0.7-0.1v2.7c-0.6,0.2-1,0.3-1.3,0.3s-0.7,0.1-1.2,0.1c-1.3,0-2.2-0.5-2.8-1.4c-0.3-0.5-0.5-1.2-0.6-2
			c-0.8,1-1.8,1.8-3.2,2.6c-1.4,0.7-3,1.1-4.7,1.1c-2,0-3.7-0.6-5-1.9c-1.3-1.2-1.9-2.8-1.9-4.6c0-2,0.6-3.6,1.9-4.7s2.9-1.8,5-2.1
			L191.1,439.4z M183.3,449.4c0.8,0.6,1.7,0.9,2.8,0.9c1.3,0,2.6-0.3,3.8-0.9c2.1-1,3.1-2.6,3.1-4.9v-3c-0.5,0.3-1,0.5-1.7,0.7
			s-1.4,0.3-2.1,0.4l-2.2,0.3c-1.3,0.2-2.3,0.5-3,0.8c-1.1,0.6-1.7,1.7-1.7,3.1C182.2,447.9,182.6,448.7,183.3,449.4z"/>
		<path class="st0" d="M202.7,422.5h3.5V440l9.5-9.3h4.7l-8.4,8.2l8.9,13.8h-4.7l-6.9-11.2l-3,2.9v8.2h-3.5v-30.1H202.7z"/>
		<path class="st0" d="M224.6,424.6h3.7v6.1h3.5v3h-3.5V448c0,0.8,0.3,1.3,0.8,1.5c0.3,0.2,0.8,0.2,1.4,0.2c0.2,0,0.4,0,0.6,0
			s0.4,0,0.7-0.1v2.9c-0.4,0.1-0.9,0.2-1.3,0.3c-0.5,0.1-1,0.1-1.5,0.1c-1.7,0-2.9-0.4-3.5-1.3s-0.9-2-0.9-3.4v-14.5h-3v-3h3
			L224.6,424.6L224.6,424.6z"/>
		<path class="st0" d="M235.6,430.7h3.7v3.1c0.9-1.1,1.7-1.9,2.4-2.4c1.2-0.8,2.6-1.3,4.1-1.3c1.8,0,3.2,0.4,4.2,1.3
			c0.6,0.5,1.1,1.2,1.6,2.2c0.8-1.2,1.8-2,2.9-2.6s2.4-0.9,3.7-0.9c3,0,5,1.1,6,3.2c0.6,1.1,0.9,2.7,0.9,4.6v14.6h-3.8v-15.3
			c0-1.5-0.4-2.5-1.1-3s-1.6-0.8-2.7-0.8c-1.4,0-2.7,0.5-3.7,1.5s-1.6,2.6-1.6,4.9v12.8h-3.8v-14.3c0-1.5-0.2-2.6-0.5-3.3
			c-0.6-1-1.6-1.5-3.1-1.5c-1.4,0-2.7,0.5-3.8,1.6s-1.7,3-1.7,5.9v11.6h-3.7V430.7L235.6,430.7z"/>
		<path class="st0" d="M282.5,439.4c0.8-0.1,1.4-0.5,1.7-1.1c0.2-0.3,0.2-0.8,0.2-1.4c0-1.3-0.4-2.2-1.3-2.7
			c-0.9-0.6-2.2-0.9-3.8-0.9c-1.9,0-3.3,0.5-4.1,1.6c-0.4,0.6-0.7,1.4-0.9,2.6h-3.4c0.1-2.7,0.9-4.6,2.6-5.7s3.6-1.6,5.9-1.6
			c2.6,0,4.7,0.5,6.3,1.5s2.4,2.5,2.4,4.6V449c0,0.4,0.1,0.7,0.2,0.9c0.2,0.2,0.5,0.3,1,0.3c0.2,0,0.3,0,0.6,0s0.4-0.1,0.7-0.1v2.7
			c-0.6,0.2-1,0.3-1.3,0.3s-0.7,0.1-1.2,0.1c-1.3,0-2.2-0.5-2.8-1.4c-0.3-0.5-0.5-1.2-0.6-2c-0.8,1-1.8,1.8-3.2,2.6
			c-1.4,0.7-3,1.1-4.7,1.1c-2,0-3.7-0.6-5-1.9c-1.3-1.2-1.9-2.8-1.9-4.6c0-2,0.6-3.6,1.9-4.7s2.9-1.8,5-2.1L282.5,439.4z
			 M274.7,449.4c0.8,0.6,1.7,0.9,2.8,0.9c1.3,0,2.6-0.3,3.8-0.9c2.1-1,3.1-2.6,3.1-4.9v-3c-0.5,0.3-1,0.5-1.7,0.7s-1.4,0.3-2.1,0.4
			l-2.2,0.3c-1.3,0.2-2.3,0.5-3,0.8c-1.1,0.6-1.7,1.7-1.7,3.1C273.5,447.9,273.9,448.7,274.7,449.4z"/>
		<path class="st0" d="M294.1,430.7h3.5v3.1c1-1.3,2.1-2.2,3.3-2.8s2.5-0.8,3.9-0.8c3.1,0,5.2,1.1,6.3,3.3c0.6,1.2,0.9,2.9,0.9,5.1
			v14.1h-3.8v-13.8c0-1.3-0.2-2.4-0.6-3.2c-0.7-1.4-1.8-2.1-3.6-2.1c-0.9,0-1.6,0.1-2.2,0.3c-1,0.3-1.9,0.9-2.7,1.8
			c-0.6,0.7-1,1.5-1.2,2.2c-0.2,0.8-0.3,1.9-0.3,3.3v11.5h-3.7v-22H294.1z"/>
		<path class="st0" d="M329.3,439.4c0.8-0.1,1.4-0.5,1.7-1.1c0.2-0.3,0.2-0.8,0.2-1.4c0-1.3-0.4-2.2-1.3-2.7
			c-0.9-0.6-2.2-0.9-3.8-0.9c-1.9,0-3.3,0.5-4.1,1.6c-0.4,0.6-0.7,1.4-0.9,2.6h-3.4c0.1-2.7,0.9-4.6,2.6-5.7s3.6-1.6,5.9-1.6
			c2.6,0,4.7,0.5,6.3,1.5s2.4,2.5,2.4,4.6V449c0,0.4,0.1,0.7,0.2,0.9c0.2,0.2,0.5,0.3,1,0.3c0.2,0,0.3,0,0.6,0s0.4-0.1,0.7-0.1v2.7
			c-0.6,0.2-1,0.3-1.3,0.3s-0.7,0.1-1.2,0.1c-1.3,0-2.2-0.5-2.8-1.4c-0.3-0.5-0.5-1.2-0.6-2c-0.8,1-1.8,1.8-3.2,2.6
			c-1.4,0.7-3,1.1-4.7,1.1c-2,0-3.7-0.6-5-1.9c-1.3-1.2-1.9-2.8-1.9-4.6c0-2,0.6-3.6,1.9-4.7s2.9-1.8,5-2.1L329.3,439.4z
			 M321.6,449.4c0.8,0.6,1.7,0.9,2.8,0.9c1.3,0,2.6-0.3,3.8-0.9c2.1-1,3.1-2.6,3.1-4.9v-3c-0.5,0.3-1,0.5-1.7,0.7s-1.4,0.3-2.1,0.4
			l-2.2,0.3c-1.3,0.2-2.3,0.5-3,0.8c-1.1,0.6-1.7,1.7-1.7,3.1C320.4,447.9,320.8,448.7,321.6,449.4z"/>
		<path class="st0" d="M353.2,431.6c0.7,0.5,1.4,1.2,2.1,2.1v-2.8h3.4v20c0,2.8-0.4,5-1.2,6.6c-1.5,3-4.4,4.5-8.6,4.5
			c-2.4,0-4.3-0.5-5.9-1.6s-2.5-2.7-2.7-5h3.8c0.2,1,0.5,1.7,1.1,2.3c0.8,0.8,2.1,1.2,3.9,1.2c2.8,0,4.7-1,5.5-3
			c0.5-1.2,0.8-3.3,0.7-6.3c-0.7,1.1-1.6,2-2.7,2.5s-2.4,0.8-4.1,0.8c-2.4,0-4.4-0.8-6.2-2.5c-1.8-1.7-2.7-4.5-2.7-8.4
			c0-3.7,0.9-6.5,2.7-8.6s4-3.1,6.5-3.1C350.4,430.3,351.9,430.7,353.2,431.6z M353.7,435.5c-1.1-1.3-2.5-2-4.3-2
			c-2.6,0-4.4,1.2-5.3,3.7c-0.5,1.3-0.8,3-0.8,5.1c0,2.5,0.5,4.4,1.5,5.6s2.3,1.9,4,1.9c2.6,0,4.5-1.2,5.6-3.6
			c0.6-1.4,0.9-2.9,0.9-4.7C355.4,438.9,354.8,436.9,353.7,435.5z"/>
		<path class="st0" d="M378,431.3c1.5,0.7,2.6,1.7,3.3,2.8s1.2,2.4,1.5,3.9c0.2,1,0.3,2.6,0.3,4.8h-16c0.1,2.2,0.6,4,1.6,5.4
			s2.5,2,4.5,2c1.9,0,3.4-0.6,4.6-1.9c0.6-0.7,1.1-1.6,1.4-2.6h3.6c-0.1,0.8-0.4,1.7-1,2.7c-0.5,1-1.1,1.8-1.8,2.4
			c-1.1,1.1-2.5,1.8-4.1,2.2c-0.9,0.2-1.9,0.3-3,0.3c-2.7,0-5-1-6.9-3s-2.8-4.8-2.8-8.4c0-3.5,1-6.4,2.9-8.6s4.4-3.3,7.5-3.3
			C375.1,430.2,376.6,430.6,378,431.3z M379.3,439.9c-0.2-1.6-0.5-2.9-1-3.8c-1-1.8-2.7-2.7-5-2.7c-1.7,0-3.1,0.6-4.2,1.8
			c-1.1,1.2-1.7,2.8-1.8,4.7H379.3z"/>
		<path class="st0" d="M387.9,430.7h3.7v3.1c0.9-1.1,1.7-1.9,2.4-2.4c1.2-0.8,2.6-1.3,4.1-1.3c1.8,0,3.2,0.4,4.2,1.3
			c0.6,0.5,1.1,1.2,1.6,2.2c0.8-1.2,1.8-2,2.9-2.6s2.4-0.9,3.7-0.9c3,0,5,1.1,6,3.2c0.6,1.1,0.9,2.7,0.9,4.6v14.6h-3.8v-15.3
			c0-1.5-0.4-2.5-1.1-3s-1.6-0.8-2.7-0.8c-1.4,0-2.7,0.5-3.7,1.5s-1.6,2.6-1.6,4.9v12.8h-3.8v-14.3c0-1.5-0.2-2.6-0.5-3.3
			c-0.6-1-1.6-1.5-3.1-1.5c-1.4,0-2.7,0.5-3.8,1.6s-1.7,3-1.7,5.9v11.6h-3.7V430.7L387.9,430.7z"/>
		<path class="st0" d="M436.5,431.3c1.5,0.7,2.6,1.7,3.3,2.8s1.2,2.4,1.5,3.9c0.2,1,0.3,2.6,0.3,4.8h-16c0.1,2.2,0.6,4,1.6,5.4
			s2.5,2,4.5,2c1.9,0,3.4-0.6,4.6-1.9c0.6-0.7,1.1-1.6,1.4-2.6h3.6c-0.1,0.8-0.4,1.7-1,2.7c-0.5,1-1.1,1.8-1.8,2.4
			c-1.1,1.1-2.5,1.8-4.1,2.2c-0.9,0.2-1.9,0.3-3,0.3c-2.7,0-5-1-6.9-3s-2.8-4.8-2.8-8.4c0-3.5,1-6.4,2.9-8.6s4.4-3.3,7.5-3.3
			C433.6,430.2,435.1,430.6,436.5,431.3z M437.9,439.9c-0.1-1.6-0.5-2.9-1-3.8c-1-1.8-2.7-2.7-5-2.7c-1.7,0-3.1,0.6-4.2,1.8
			c-1.1,1.2-1.7,2.8-1.8,4.7H437.9z"/>
		<path class="st0" d="M446.4,430.7h3.5v3.1c1-1.3,2.1-2.2,3.3-2.8s2.5-0.8,3.9-0.8c3.1,0,5.2,1.1,6.3,3.3c0.6,1.2,0.9,2.9,0.9,5.1
			v14.1h-3.8v-13.8c0-1.3-0.2-2.4-0.6-3.2c-0.7-1.4-1.8-2.1-3.6-2.1c-0.9,0-1.6,0.1-2.2,0.3c-1,0.3-1.9,0.9-2.7,1.8
			c-0.6,0.7-1,1.5-1.2,2.2c-0.2,0.8-0.3,1.9-0.3,3.3v11.5h-3.7v-22H446.4z"/>
		<path class="st0" d="M470.6,424.6h3.7v6.1h3.5v3h-3.5V448c0,0.8,0.3,1.3,0.8,1.5c0.3,0.2,0.8,0.2,1.4,0.2c0.2,0,0.4,0,0.6,0
			c0.2,0,0.4,0,0.7-0.1v2.9c-0.4,0.1-0.9,0.2-1.3,0.3c-0.5,0.1-1,0.1-1.5,0.1c-1.7,0-2.9-0.4-3.5-1.3s-0.9-2-0.9-3.4v-14.5h-3v-3h3
			V424.6z"/>
		<path class="st0" d="M482.5,448.2h4.3v4.5h-4.3V448.2z"/>
	</g>
	<g>
		<path class="st1" d="M-258,390.9c0.8,7.2,6.9,12.7,14.3,12.7c2.2,0,4.4-0.5,6.3-1.4l24.9,28.6c-1.7,2.4-2.7,5.2-2.7,8.3
			c0,7.9,6.4,14.4,14.4,14.4c7.9,0,14.4-6.4,14.4-14.4c0-4.3-1.9-8.2-4.9-10.8l38.6-61.4c1.7,0.7,3.5,1,5.4,1
			c7.9,0,14.4-6.4,14.4-14.4c0-7.9-6.4-14.4-14.4-14.4c-7.9,0-14.4,6.4-14.4,14.4c0,1,0.1,2,0.3,2.9l-69.5,26
			c-2.4-4.5-7.2-7.5-12.6-7.5c-7.9,0-14.4,6.4-14.4,14.4C-258.1,389.8-258,390.4-258,390.9 M-232.1,397.8c1.8-2.4,2.8-5.3,2.8-8.5
			c0-0.9-0.1-1.9-0.3-2.8l1.4-0.5l0.4-0.1l67.8-25.3c0.9,1.6,2.1,3,3.5,4.2l-38.6,61.2c-1.8-0.8-3.7-1.2-5.8-1.2
			c-3.3,0-6.3,1.1-8.7,2.9l-24.3-27.9C-233.2,399.1-232.6,398.5-232.1,397.8"/>
		<g class="st2">
			<path class="st1" d="M-91.1,398.3c-5.7,0-10.2-1.4-13.4-4.2s-4.9-6.8-5.1-12.1c-0.1-4.1,0.4-7.9,1.7-11.3s3-6.3,5.4-8.7
				c2.3-2.4,5-4.2,8.2-5.6c3.2-1.3,6.7-2,10.3-2c2.9,0,5.6,0.3,8.1,0.9s4.8,1.5,6.8,2.6l-2.1,10.2h-1.2c-1.9-1.9-3.7-3.3-5.5-4.3
				c-1.8-0.9-3.9-1.4-6.3-1.4c-4.2,0-7.6,1.7-10.2,5.1c-2.6,3.4-3.8,7.7-3.6,12.9c0.1,3.4,1,5.8,2.5,7.3c1.6,1.5,3.8,2.3,6.7,2.3
				c2.6,0,5-0.5,7.3-1.6c2.3-1,4.4-2.4,6.4-4h1.1l-2.1,10.1c-0.8,0.3-1.8,0.8-2.9,1.2c-1.1,0.5-2.2,0.9-3.2,1.2
				c-1.3,0.4-2.6,0.7-3.8,0.9C-87.3,398.2-88.9,398.3-91.1,398.3z"/>
			<path class="st1" d="M-50.8,398.4c-5.4,0-9.7-1.2-12.7-3.6s-4.6-5.7-4.8-10c-0.1-2.9,0.3-5.6,1.2-8s2.2-4.6,4-6.4
				c1.7-1.8,3.8-3.2,6.4-4.2c2.6-1,5.4-1.6,8.5-1.6c4.8,0,8.4,1,10.8,2.9c2.5,1.9,3.8,4.8,3.9,8.5c0,1.3,0,2.5-0.3,3.8
				c-0.2,1.2-0.5,2.5-0.9,3.7h-23.7c0,0.1,0,0.2,0,0.3s0,0.2,0,0.3c0.1,2.2,0.9,3.9,2.5,5.2c1.6,1.2,4,1.9,7.2,1.9
				c2.2,0,4.3-0.4,6.3-1.1c2-0.8,3.7-1.6,5.1-2.5h1.1l-1.6,8.2c-2,0.9-4,1.5-6.2,2C-46,398.2-48.4,398.4-50.8,398.4z M-43.8,377.5
				c0-0.3,0.1-0.7,0.1-0.9c0-0.3,0-0.6,0-0.9c-0.1-1.5-0.6-2.6-1.5-3.4c-1-0.8-2.3-1.2-4.1-1.2c-2.1,0-3.9,0.6-5.3,1.7
				c-1.4,1.1-2.4,2.7-3.1,4.8h13.9V377.5z"/>
			<path class="st1" d="M6.5,372.9c0,0.6,0,1.2,0,1.8c-0.1,0.7-0.2,1.4-0.3,2.1l-4,20.7H-8.1l3.1-15.8c0.2-1.2,0.4-2.2,0.5-3
				s0.2-1.6,0.1-2.3c0-1.2-0.4-2.1-1-2.7s-1.8-0.9-3.5-0.9c-0.8,0-1.7,0.2-2.8,0.5c-1,0.4-2.2,0.9-3.5,1.6l-4.4,22.6h-10.3l6.2-31.9
				h10.3l-0.7,3.5c2.1-1.4,3.9-2.5,5.6-3.2c1.7-0.8,3.6-1.2,5.7-1.2c2.9,0,5.1,0.7,6.7,2.1C5.5,368.2,6.4,370.2,6.5,372.9z"/>
			<path class="st1" d="M23.9,398.1c-3.5,0-6.1-0.6-7.6-1.7c-1.6-1.2-2.4-2.9-2.4-5.2c0-0.6,0-1.2,0.1-1.8c0.1-0.6,0.2-1.2,0.3-2
				l3-15.1h-4.2l1.3-6.7h4.2l1.8-9.1h10.2l-1.8,9.1h9.6l-1.3,6.7h-9.6l-2.3,11.6c-0.2,0.8-0.3,1.6-0.5,2.4c-0.1,0.8-0.2,1.5-0.2,2.1
				c0,1.1,0.4,1.9,1,2.4c0.6,0.4,1.6,0.7,3,0.7c0.5,0,1.2-0.1,2.1-0.3c0.9-0.2,1.5-0.4,2-0.7h0.9l-1.4,6.8c-1.1,0.3-2.4,0.5-3.6,0.7
				C27.2,398.1,25.7,398.1,23.9,398.1z"/>
			<path class="st1" d="M65.9,375.4H65c-0.5-0.2-1.1-0.3-1.9-0.3c-0.8-0.1-1.7-0.1-2.5-0.1c-1.3,0-2.6,0.1-3.9,0.3
				c-1.2,0.2-2.5,0.5-3.8,1l-4.2,21.3H38.4l6.3-31.9H55l-0.9,4.7c1.9-1.4,3.8-2.6,5.6-3.5c1.9-0.9,3.8-1.3,5.7-1.3
				c0.4,0,0.8,0,1.2,0s0.8,0,1.2,0.1L65.9,375.4z"/>
			<path class="st1" d="M87.6,394.1c-0.6,0.4-1.4,0.9-2.3,1.5s-1.7,1.1-2.5,1.4c-1,0.4-2,0.8-2.9,1s-2.2,0.3-3.8,0.3
				c-2.6,0-4.8-0.7-6.6-2.2c-1.7-1.5-2.6-3.4-2.7-5.8c-0.1-2.5,0.4-4.7,1.6-6.4c1.1-1.8,2.8-3.1,5.2-4.2c2.2-1,4.7-1.7,7.8-2.1
				c3-0.4,6.3-0.8,9.8-1c0-0.1,0.1-0.3,0.1-0.6c0.1-0.3,0.1-0.5,0.1-0.9c0-1.3-0.7-2.3-2-2.8s-3.1-0.8-5.6-0.8
				c-1.7,0-3.5,0.3-5.5,0.9s-3.5,1-4.5,1.4h-0.9l1.2-7.5c1.2-0.3,3-0.6,5.5-1s5-0.6,7.4-0.6c5,0,8.7,0.7,11.1,2s3.6,3.3,3.7,6.1
				c0,0.4,0,0.9,0,1.5s-0.1,1.1-0.2,1.6l-4.2,21.7H87.2L87.6,394.1z M89.9,382.5c-1.8,0.2-3.5,0.3-5.1,0.5s-2.9,0.5-4,0.9
				s-2,1-2.6,1.8s-0.9,1.8-0.8,3c0,1.1,0.5,1.9,1.3,2.3s2,0.7,3.5,0.7c1,0,2.1-0.2,3.2-0.7s2.2-1.1,3.2-1.8L89.9,382.5z"/>
			<path class="st1" d="M125.6,353.4l-8.7,44.1h-10.3l8.7-44.1H125.6z"/>
			<path class="st1" d="M142.9,398.3c-3.6,0-6.8-0.3-9.7-0.9c-2.8-0.6-5.3-1.4-7.4-2.3l1.8-10.1h1.2c2,1.8,4.3,3.2,7,4.1
				c2.7,1,5.5,1.5,8.5,1.5c3.1,0,5.4-0.4,6.8-1.3c1.4-0.8,2.1-2,2.1-3.6c0-0.6-0.2-1.1-0.4-1.5s-0.7-0.8-1.4-1.3s-1.6-0.8-2.8-1.2
				c-1.2-0.4-2.7-0.9-4.6-1.4c-2.1-0.6-4-1.2-5.6-1.8c-1.7-0.7-3.1-1.4-4.3-2.4c-1.2-0.9-2.1-2-2.7-3.2c-0.6-1.2-1-2.7-1-4.3
				c-0.1-4.2,1.6-7.6,5.2-10.1s8.7-3.8,15.2-3.8c3.1,0,6.1,0.3,8.9,0.8s5.2,1.2,7.1,2.1l-1.7,9.7h-1.2c-1.5-1.4-3.5-2.5-5.9-3.4
				s-5.1-1.4-7.9-1.4s-5,0.4-6.5,1.2c-1.5,0.8-2.2,1.9-2.2,3.4c0,0.7,0.2,1.2,0.4,1.6s0.7,0.9,1.4,1.3c0.6,0.4,1.6,0.8,2.9,1.2
				s2.9,0.9,4.6,1.4c4.8,1.3,8.2,2.8,10.3,4.5s3.2,4,3.3,6.9c0.1,2.4-0.4,4.6-1.4,6.4c-1,1.9-2.5,3.4-4.4,4.5
				c-2,1.2-4.2,2.1-6.8,2.7C149.1,398,146.2,398.3,142.9,398.3z"/>
			<path class="st1" d="M180.7,398.1c-3.5,0-6.1-0.6-7.6-1.7c-1.6-1.2-2.4-2.9-2.5-5.2c0-0.6,0-1.2,0.1-1.8c0.1-0.6,0.2-1.2,0.3-2
				l3-15.1h-4.2l1.3-6.7h4.2l1.8-9.1h10.2l-1.8,9.1h9.6l-1.3,6.7h-9.6l-2.3,11.5c-0.2,0.8-0.3,1.6-0.5,2.4c-0.1,0.8-0.2,1.5-0.2,2.1
				c0,1.1,0.4,1.9,1,2.4c0.6,0.4,1.6,0.7,3,0.7c0.5,0,1.2-0.1,2.1-0.3s1.5-0.4,2-0.7h0.8l-1.3,6.8c-1.1,0.3-2.4,0.5-3.6,0.7
				S182.4,398.1,180.7,398.1z"/>
			<path class="st1" d="M215.1,394.1c-0.6,0.4-1.4,0.9-2.3,1.5s-1.7,1.1-2.5,1.4c-1,0.4-2,0.8-2.9,1s-2.2,0.3-3.8,0.3
				c-2.7,0-4.8-0.7-6.6-2.2c-1.7-1.5-2.6-3.4-2.7-5.8c-0.1-2.5,0.4-4.7,1.6-6.4c1.1-1.8,2.8-3.1,5.2-4.2c2.2-1,4.7-1.7,7.8-2.1
				c3-0.4,6.3-0.8,9.8-1c0-0.1,0.1-0.3,0.1-0.6c0.1-0.3,0.1-0.5,0.1-0.9c0-1.3-0.7-2.3-2-2.8s-3.1-0.8-5.6-0.8
				c-1.7,0-3.5,0.3-5.5,0.9s-3.5,1-4.5,1.4h-1.1l1.2-7.5c1.2-0.3,3-0.6,5.5-1s5-0.6,7.4-0.6c5,0,8.7,0.7,11.1,2s3.6,3.3,3.7,6.1
				c0,0.4,0,0.9,0,1.5s-0.1,1.1-0.2,1.6l-4.2,21.7h-10.2L215.1,394.1z M217.5,382.5c-1.8,0.2-3.5,0.3-5.1,0.5s-2.9,0.5-4,0.9
				s-2,1-2.6,1.8s-0.9,1.8-0.8,3c0,1.1,0.5,1.9,1.3,2.3s2,0.7,3.5,0.7c1,0,2.1-0.2,3.2-0.7s2.2-1.1,3.2-1.8L217.5,382.5z"/>
			<path class="st1" d="M246.5,398.1c-3.5,0-6.1-0.6-7.6-1.7c-1.6-1.2-2.4-2.9-2.5-5.2c0-0.6,0-1.2,0.1-1.8c0.1-0.6,0.2-1.2,0.3-2
				l3-15.1h-4.2l1.3-6.7h4.2l1.8-9.1h10.2l-1.8,9.1h9.6l-1.3,6.7H250l-2.3,11.5c-0.2,0.8-0.3,1.6-0.5,2.4c-0.1,0.8-0.2,1.5-0.2,2.1
				c0,1.1,0.4,1.9,1,2.4c0.6,0.4,1.6,0.7,3,0.7c0.5,0,1.2-0.1,2.1-0.3c0.9-0.2,1.5-0.4,2-0.7h0.8l-1.3,6.8c-1.1,0.3-2.4,0.5-3.6,0.7
				C249.8,398.1,248.3,398.1,246.5,398.1z"/>
			<path class="st1" d="M277.6,365.7l-6.3,31.9H261l6.3-31.9H277.6z M280.3,353.4l-1.5,7.7H268l1.5-7.7H280.3z"/>
			<path class="st1" d="M317.2,377.3c0.1,3-0.3,5.8-1.2,8.4s-2.2,4.9-4,6.7c-1.8,1.9-4,3.4-6.4,4.5c-2.5,1-5.4,1.6-8.7,1.6
				c-4.7,0-8.4-1.1-11-3.4s-4-5.4-4.1-9.4c-0.1-2.8,0.3-5.5,1.1-8.1c0.9-2.6,2.2-4.8,4-6.8c1.7-1.9,3.9-3.4,6.5-4.5s5.5-1.7,8.7-1.7
				c4.8,0,8.4,1.1,11.1,3.4C315.7,370.3,317,373.4,317.2,377.3z M304.3,387.8c0.8-1.3,1.4-2.8,1.8-4.3s0.5-3.5,0.5-5.7
				c-0.1-1.9-0.5-3.4-1.4-4.5c-0.9-1-2.3-1.6-4.1-1.6c-1.4,0-2.7,0.4-3.8,1c-1.1,0.7-2,1.7-2.8,3c-0.7,1.2-1.3,2.7-1.7,4.4
				c-0.4,1.8-0.5,3.6-0.5,5.4c0.1,2.2,0.6,3.7,1.6,4.7s2.3,1.4,4,1.4c1.2,0,2.4-0.3,3.5-1C302.6,389.9,303.5,388.9,304.3,387.8z"/>
			<path class="st1" d="M357.7,372.9c0,0.6,0,1.2,0,1.8c-0.1,0.7-0.2,1.4-0.3,2.1l-4,20.7h-10.3l3.1-15.8c0.2-1.2,0.4-2.2,0.5-3
				s0.2-1.6,0.1-2.3c0-1.2-0.4-2.1-1-2.7s-1.8-0.9-3.5-0.9c-0.8,0-1.7,0.2-2.8,0.5c-1,0.4-2.2,0.9-3.5,1.6l-4.4,22.6h-10.3l6.2-31.9
				h10.3l-0.7,3.5c2.1-1.4,3.9-2.5,5.6-3.2c1.7-0.8,3.6-1.2,5.7-1.2c2.9,0,5.1,0.7,6.7,2.1C356.7,368.2,357.6,370.2,357.7,372.9z"/>
			<path class="st1" d="M383.1,398.3c-5.7,0-10.2-1.4-13.4-4.2s-4.9-6.8-5.1-12.1c-0.1-4.1,0.4-7.9,1.7-11.3s3-6.3,5.4-8.7
				c2.3-2.4,5-4.2,8.2-5.6s6.7-2,10.3-2c2.9,0,5.6,0.3,8.1,0.9s4.8,1.5,6.8,2.6l-2.1,10.2h-1.2c-1.9-1.9-3.7-3.3-5.5-4.3
				c-1.8-0.9-3.9-1.4-6.3-1.4c-4.2,0-7.6,1.7-10.2,5.1s-3.8,7.7-3.6,12.9c0.1,3.4,1,5.8,2.5,7.3c1.6,1.5,3.8,2.3,6.7,2.3
				c2.6,0,5-0.5,7.3-1.6c2.3-1,4.4-2.4,6.4-4h1.1l-2.1,10.1c-0.8,0.3-1.8,0.8-2.9,1.2c-1.1,0.5-2.2,0.9-3.2,1.2
				c-1.3,0.4-2.6,0.7-3.8,0.9C386.8,398.2,385.2,398.3,383.1,398.3z"/>
			<path class="st1" d="M447.1,365.9c0.1,3.4-0.8,6.2-2.8,8.5s-4.7,4-8.2,5.2l10.4,17.8h-12.2l-8.4-15.4h-6.1l-3,15.5h-10.9
				l8.3-42.2h16.5c5.2,0,9.2,0.9,12.1,2.6C445.7,359.6,447,362.3,447.1,365.9z M435.5,367.7c-0.1-1.7-0.6-2.9-1.8-3.6
				c-1.1-0.7-2.7-1.1-4.8-1.1h-5.4l-2.3,11.4h5.4c2.9,0,5.1-0.6,6.7-1.8C434.8,371.5,435.5,369.8,435.5,367.7z"/>
			<path class="st1" d="M495.9,397.5H485l5.4-27.6l-11,17.7h-7.5l-4.4-18.9l-5.6,28.8h-10.3l8.3-42.2h12.5l5.4,21.2l13.6-21.2h12.8
				L495.9,397.5z"/>
		</g>
	</g>
</g>
</svg>
