<svg width="24" height="24" viewBox="0 0 24 24" fill="none" xmlns="http://www.w3.org/2000/svg">
<g clip-path="url(#clip0)">
<path d="M6.5 19.5H2.5C1.96957 19.5 1.46086 19.2893 1.08579 18.9142C0.710714 18.5391 0.5 18.0304 0.5 17.5V2.5C0.5 1.96957 0.710714 1.46086 1.08579 1.08579C1.46086 0.710714 1.96957 0.5 2.5 0.5H21.5C22.0304 0.5 22.5391 0.710714 22.9142 1.08579C23.2893 1.46086 23.5 1.96957 23.5 2.5V17.5C23.5 18.0304 23.2893 18.5391 22.9142 18.9142C22.5391 19.2893 22.0304 19.5 21.5 19.5H17.5" stroke="#7E8091" stroke-width="1.25" stroke-linecap="round" stroke-linejoin="round"/>
<path d="M0.5 5.5H23.5" stroke="#7E8091" stroke-width="1.25" stroke-linecap="round" stroke-linejoin="round"/>
<path d="M4 2.75C4.04945 2.75 4.09778 2.76466 4.13889 2.79213C4.18 2.8196 4.21205 2.85865 4.23097 2.90433C4.24989 2.95001 4.25484 3.00028 4.2452 3.04877C4.23555 3.09727 4.21174 3.14181 4.17678 3.17678C4.14181 3.21174 4.09727 3.23555 4.04877 3.2452C4.00028 3.25484 3.95001 3.24989 3.90433 3.23097C3.85865 3.21205 3.8196 3.18 3.79213 3.13889C3.76466 3.09778 3.75 3.04945 3.75 3C3.75 2.9337 3.77634 2.87011 3.82322 2.82322C3.87011 2.77634 3.9337 2.75 4 2.75" stroke="#7E8091" stroke-width="1.25" stroke-linecap="round" stroke-linejoin="round"/>
<path d="M7 2.75C7.04945 2.75 7.09778 2.76466 7.13889 2.79213C7.18 2.8196 7.21205 2.85865 7.23097 2.90433C7.24989 2.95001 7.25484 3.00028 7.2452 3.04877C7.23555 3.09727 7.21174 3.14181 7.17678 3.17678C7.14181 3.21174 7.09727 3.23555 7.04877 3.2452C7.00028 3.25484 6.95001 3.24989 6.90433 3.23097C6.85865 3.21205 6.8196 3.18 6.79213 3.13889C6.76466 3.09778 6.75 3.04945 6.75 3C6.75 2.9337 6.77634 2.87011 6.82322 2.82322C6.87011 2.77634 6.9337 2.75 7 2.75Z" stroke="#7E8091" stroke-width="1.25" stroke-linecap="round" stroke-linejoin="round"/>
<path d="M10 2.75C10.0494 2.75 10.0978 2.76466 10.1389 2.79213C10.18 2.8196 10.212 2.85865 10.231 2.90433C10.2499 2.95001 10.2548 3.00028 10.2452 3.04877C10.2356 3.09727 10.2117 3.14181 10.1768 3.17678C10.1418 3.21174 10.0973 3.23555 10.0488 3.2452C10.0003 3.25484 9.95001 3.24989 9.90433 3.23097C9.85865 3.21205 9.8196 3.18 9.79213 3.13889C9.76466 3.09778 9.75 3.04945 9.75 3C9.75 2.9337 9.77634 2.87011 9.82322 2.82322C9.87011 2.77634 9.9337 2.75 10 2.75Z" stroke="#7E8091" stroke-width="1.25" stroke-linecap="round" stroke-linejoin="round"/>
<path d="M14.5001 23.5C14.7653 23.5 15.0196 23.3946 15.2072 23.2071C15.3947 23.0196 15.5001 22.7652 15.5001 22.5C15.5001 22.3631 15.4595 22.2292 15.3835 22.1153C15.3075 22.0014 15.1995 21.9126 15.0731 21.86C14.4182 21.589 13.8654 21.1184 13.4932 20.5152C13.1211 19.912 12.9485 19.2069 13.0001 18.5C13.0001 15.114 16.7441 19.216 16.9881 9.526C16.9915 9.39251 16.9682 9.25967 16.9195 9.13533C16.8708 9.01098 16.7977 8.89765 16.7045 8.80202C16.6113 8.70639 16.4999 8.6304 16.3768 8.57853C16.2538 8.52666 16.1216 8.49995 15.9881 8.5H8.01206C7.87852 8.49995 7.74632 8.52666 7.62327 8.57853C7.50022 8.6304 7.3888 8.70639 7.2956 8.80202C7.20239 8.89765 7.12928 9.01098 7.08058 9.13533C7.03189 9.25967 7.00858 9.39251 7.01206 9.526C7.25606 19.216 11.0001 15.114 11.0001 18.5C11.0516 19.2069 10.8791 19.912 10.5069 20.5152C10.1348 21.1184 9.58195 21.589 8.92706 21.86C8.80054 21.9124 8.69243 22.0013 8.61642 22.1152C8.5404 22.2291 8.49991 22.363 8.50006 22.5C8.50006 22.7652 8.60541 23.0196 8.79295 23.2071C8.98049 23.3946 9.23484 23.5 9.50006 23.5H14.5001Z" stroke="#266AD2" stroke-width="1.25" stroke-linecap="round" stroke-linejoin="round"/>
<path d="M7 9.5H4.5C4.5 9.5 4.5 14.229 7.72 14.489" stroke="#266AD2" stroke-width="1.25" stroke-linecap="round" stroke-linejoin="round"/>
<path d="M17.0012 9.5H19.5012C19.5012 9.5 19.5013 14.229 16.2812 14.489" stroke="#266AD2" stroke-width="1.25" stroke-linecap="round" stroke-linejoin="round"/>
</g>
<defs>
<clipPath id="clip0">
<rect width="24" height="24" fill="white"/>
</clipPath>
</defs>
</svg>
