<svg width="24" height="24" viewBox="0 0 24 24" fill="none" xmlns="http://www.w3.org/2000/svg">
<g clip-path="url(#clip0)">
<path fill-rule="evenodd" clip-rule="evenodd" d="M7.22625 19H12.4965L12.4983 19L12.5 19H17.5C17.5988 19 17.6953 18.9708 17.7774 18.916L23.7774 14.916C24.0072 14.7628 24.0692 14.4524 23.9161 14.2226C23.7629 13.9929 23.4525 13.9308 23.2227 14.084L17.3487 18H12.9965V16H17.5C17.5988 16 17.6953 15.9708 17.7774 15.916L23.7774 11.916C24.0072 11.7628 24.0692 11.4524 23.9161 11.2227C23.7629 10.9929 23.4525 10.9308 23.2227 11.084L17.3487 15H12.9965V13.2298L11.9965 14.2298V18H8.22625L7.22625 19ZM11.9965 10.3728V9.5C11.9965 9.26713 12.0507 9.03746 12.1548 8.82918C12.259 8.6209 12.4102 8.43972 12.5965 8.3C12.6012 8.29643 12.6061 8.29295 12.611 8.28955L15.9022 6H10.6533L6.19061 9.10448C6.1312 9.15042 6.08289 9.20917 6.04927 9.27639C6.02088 9.33318 6.00362 9.39473 5.99828 9.45773C5.99944 9.47167 6.00004 9.48576 6.00004 9.5C6.00004 9.52027 5.99883 9.54026 5.99649 9.5599V12.4401C5.99883 12.4598 6.00004 12.4798 6.00004 12.5C6.00004 12.5203 5.99883 12.5403 5.99649 12.5599V15.4401C5.99883 15.4598 6.00004 15.4798 6.00004 15.5C6.00004 15.5203 5.99883 15.5403 5.99649 15.5599V16.3728L4.99649 17.3728V16H0.500039C0.223896 16 3.88765e-05 15.7762 3.88765e-05 15.5C3.88765e-05 15.2239 0.223896 15 0.500039 15H4.99649V13H0.500039C0.223896 13 3.88765e-05 12.7762 3.88765e-05 12.5C3.88765e-05 12.2239 0.223896 12 0.500039 12H4.99649V10H0.500039C0.279705 10 0.0853421 9.85577 0.0214929 9.64489C-0.0423563 9.43401 0.0393602 9.20619 0.222689 9.08397L6.22269 5.08397C6.30482 5.02922 6.40133 5 6.50004 5H10.4965H10.5H17.3693L13.4345 8.93484L13.3408 9H13.3693L11.9965 10.3728ZM17.2262 9L16.2262 10H17.5C17.5988 10 17.6953 9.97078 17.7774 9.91603L23.7774 5.91603C23.9607 5.79381 24.0424 5.56599 23.9786 5.35511C23.9147 5.14423 23.7204 5 23.5 5H21.2262L20.2262 6H21.8487L17.3487 9H17.2262ZM14.2262 12L13.2262 13H17.5C17.5988 13 17.6953 12.9708 17.7774 12.916L23.7774 8.91603C24.0072 8.76285 24.0692 8.45241 23.9161 8.22265C23.7629 7.99289 23.4525 7.9308 23.2227 8.08397L17.3487 12H14.2262ZM4.36928 18H0.500039C0.223896 18 3.88765e-05 18.2239 3.88765e-05 18.5C3.88765e-05 18.7762 0.223896 19 0.500039 19H3.36928L4.36928 18ZM6.65143 6H8.90218L5.61096 8.28955C5.60607 8.29295 5.60125 8.29643 5.59649 8.3C5.41019 8.43972 5.25899 8.6209 5.15485 8.82918C5.12708 8.88471 5.10286 8.94177 5.08227 9H2.15143L6.65143 6Z" fill="#7E8091"/>
<rect x="-1.11328" y="23.9825" width="34.4572" height="1.25264" transform="rotate(-45 -1.11328 23.9825)" fill="#266AD2"/>
</g>
<defs>
<clipPath id="clip0">
<rect width="24" height="24" fill="white"/>
</clipPath>
</defs>
</svg>
