<svg width="29" height="29" viewBox="0 0 29 29" fill="none" xmlns="http://www.w3.org/2000/svg">
<path d="M27.9685 6.52494L24.5949 3.14161C24.5387 3.08534 24.4721 3.0407 24.3987 3.01025C24.3253 2.97979 24.2466 2.96411 24.1671 2.96411C24.0876 2.96411 24.009 2.97979 23.9356 3.01025C23.8622 3.0407 23.7955 3.08534 23.7394 3.14161L9.49069 17.3999C9.43457 17.4562 9.3679 17.5008 9.2945 17.5313C9.2211 17.5618 9.14241 17.5774 9.06294 17.5774C8.98347 17.5774 8.90479 17.5618 8.83139 17.5313C8.75799 17.5008 8.69132 17.4562 8.63519 17.3999L5.26153 14.0166C5.20541 13.9603 5.13873 13.9157 5.06533 13.8852C4.99193 13.8548 4.91325 13.8391 4.83378 13.8391C4.75431 13.8391 4.67562 13.8548 4.60222 13.8852C4.52882 13.9157 4.46215 13.9603 4.40603 14.0166L1.03236 17.3999C0.919097 17.5132 0.855469 17.6669 0.855469 17.8271C0.855469 17.9873 0.919097 18.1409 1.03236 18.2542L8.63519 25.8583C8.69132 25.9145 8.75799 25.9592 8.83139 25.9896C8.90479 26.0201 8.98347 26.0358 9.06294 26.0358C9.14241 26.0358 9.2211 26.0201 9.2945 25.9896C9.3679 25.9592 9.43457 25.9145 9.49069 25.8583L27.9685 7.37077C28.0792 7.25784 28.1412 7.106 28.1412 6.94786C28.1412 6.78972 28.0792 6.63788 27.9685 6.52494Z" fill="#059666"/>
</svg>
