<svg width="20" height="20" viewBox="0 0 20 20" fill="none" xmlns="http://www.w3.org/2000/svg">
<path fill-rule="evenodd" clip-rule="evenodd" d="M10 20C15.5228 20 20 15.5228 20 10C20 4.47715 15.5228 0 10 0C4.47715 0 0 4.47715 0 10C0 15.5228 4.47715 20 10 20ZM13.887 5.8977L15.1056 7.11974C15.1455 7.16053 15.1679 7.21538 15.1679 7.2725C15.1679 7.32962 15.1455 7.38446 15.1056 7.42525L8.43149 14.1028C8.41122 14.1231 8.38714 14.1393 8.36062 14.1503C8.33411 14.1613 8.30569 14.1669 8.27699 14.1669C8.24828 14.1669 8.21986 14.1613 8.19335 14.1503C8.16684 14.1393 8.14276 14.1231 8.12249 14.1028L5.37639 11.3563C5.33548 11.3154 5.3125 11.2599 5.3125 11.202C5.3125 11.1441 5.33548 11.0886 5.37639 11.0477L6.59494 9.82568C6.61521 9.80536 6.63929 9.78924 6.6658 9.77824C6.69231 9.76724 6.72074 9.76157 6.74944 9.76157C6.77814 9.76157 6.80656 9.76724 6.83308 9.77824C6.85959 9.78924 6.88367 9.80536 6.90394 9.82568L8.12249 11.0477C8.14276 11.068 8.16684 11.0842 8.19335 11.0952C8.21986 11.1062 8.24828 11.1118 8.27699 11.1118C8.30569 11.1118 8.33411 11.1062 8.36062 11.0952C8.38714 11.0842 8.41122 11.068 8.43149 11.0477L13.578 5.8977C13.5983 5.87738 13.6224 5.86126 13.6489 5.85026C13.6754 5.83926 13.7038 5.83359 13.7325 5.83359C13.7612 5.83359 13.7896 5.83926 13.8161 5.85026C13.8427 5.86126 13.8667 5.87738 13.887 5.8977Z" fill="#059666"/>
</svg>
