<svg width="1195" height="168" viewBox="0 0 1195 168" fill="none" xmlns="http://www.w3.org/2000/svg">
<path fill-rule="evenodd" clip-rule="evenodd" d="M341.025 128.447C340.498 128.979 339.858 129.245 339.105 129.245C338.352 129.245 337.712 128.975 337.185 128.436C336.658 127.896 336.395 127.255 336.395 126.51C336.395 125.766 336.658 125.124 337.185 124.585C337.712 124.045 338.352 123.776 339.105 123.776C339.858 123.776 340.498 124.045 341.025 124.585C341.552 125.124 341.815 125.766 341.815 126.51C341.815 127.255 341.552 127.9 341.025 128.447ZM280.316 155.882V158.799H304.414V155.108H285.668V154.743L304.03 128.834V125.918H280.948V129.609H298.768V129.974L280.316 155.882ZM315.572 139.248C316.821 137.926 318.417 137.266 320.36 137.266C322.287 137.266 323.845 137.926 325.035 139.248C326.224 140.57 326.842 142.317 326.887 144.489H313.471C313.622 142.317 314.322 140.57 315.572 139.248ZM326.774 152.441H330.658C330.071 154.568 328.878 156.232 327.078 157.432C325.279 158.632 323.055 159.232 320.404 159.232C317.032 159.232 314.359 158.089 312.387 155.803C310.414 153.516 309.428 150.429 309.428 146.54C309.428 142.666 310.422 139.575 312.409 137.266C314.397 134.956 317.062 133.802 320.404 133.802C323.687 133.802 326.269 134.903 328.151 137.106C330.033 139.309 330.974 142.324 330.974 146.152V147.656H313.471V147.839C313.576 150.269 314.258 152.198 315.515 153.626C316.772 155.054 318.432 155.768 320.495 155.768C323.642 155.768 325.735 154.659 326.774 152.441ZM337.163 134.235V158.799H341.048V134.235H337.163ZM353.967 127.877H350.082V134.235H346.152V137.516H350.082V152.419C350.082 154.758 350.624 156.437 351.708 157.455C352.792 158.472 354.591 158.981 357.106 158.981C357.768 158.981 358.529 158.905 359.387 158.753V155.449C358.74 155.51 358.137 155.54 357.58 155.54C356.315 155.54 355.397 155.214 354.825 154.561C354.253 153.907 353.967 152.859 353.967 151.416V137.516H359.387V134.235H353.967V127.877ZM364.243 140.957C364.243 138.921 365.108 137.22 366.84 135.853C368.572 134.486 370.732 133.802 373.322 133.802C375.867 133.802 377.967 134.394 379.623 135.579C381.28 136.764 382.236 138.367 382.492 140.387H378.652C378.381 139.385 377.783 138.591 376.857 138.006C375.931 137.421 374.745 137.129 373.299 137.129C371.839 137.129 370.616 137.471 369.629 138.154C368.643 138.838 368.15 139.719 368.15 140.797C368.15 141.633 368.493 142.328 369.178 142.882C369.863 143.437 370.928 143.889 372.373 144.238L376.123 145.15C378.441 145.712 380.154 146.525 381.261 147.588C382.367 148.651 382.921 150.056 382.921 151.803C382.921 153.976 381.995 155.757 380.143 157.147C378.291 158.537 375.964 159.232 373.164 159.232C370.454 159.232 368.233 158.624 366.501 157.409C364.77 156.194 363.799 154.568 363.588 152.533H367.585C367.917 153.596 368.572 154.428 369.55 155.028C370.529 155.628 371.779 155.928 373.299 155.928C374.941 155.928 376.288 155.571 377.342 154.857C378.396 154.143 378.923 153.224 378.923 152.1C378.923 150.429 377.636 149.274 375.061 148.636L370.883 147.611C368.579 147.049 366.896 146.24 365.835 145.184C364.773 144.128 364.243 142.719 364.243 140.957ZM408.318 137.266C406.459 134.956 403.978 133.802 400.876 133.802C399.22 133.802 397.703 134.205 396.325 135.01C394.948 135.815 393.867 136.924 393.084 138.337H392.723V134.235H389.019V167.002H392.904V155.108H393.265C393.927 156.414 394.929 157.428 396.269 158.15C397.609 158.871 399.145 159.232 400.876 159.232C403.963 159.232 406.44 158.074 408.307 155.757C410.174 153.44 411.107 150.36 411.107 146.517C411.107 142.658 410.178 139.575 408.318 137.266ZM399.95 155.7C402.178 155.7 403.925 154.887 405.19 153.262C406.454 151.636 407.087 149.388 407.087 146.517C407.087 143.646 406.458 141.398 405.201 139.772C403.944 138.147 402.201 137.334 399.972 137.334C397.774 137.334 396.028 138.158 394.733 139.806C393.438 141.455 392.79 143.691 392.79 146.517C392.79 149.327 393.434 151.56 394.721 153.216C396.009 154.872 397.752 155.7 399.95 155.7ZM429.683 154.037C428.366 155.206 426.706 155.791 424.703 155.791C423.258 155.791 422.076 155.438 421.158 154.732C420.239 154.025 419.78 153.057 419.78 151.826C419.78 150.581 420.209 149.631 421.067 148.978C421.925 148.325 423.273 147.937 425.11 147.816L431.66 147.383V149.639C431.66 151.401 431.001 152.867 429.683 154.037ZM423.981 159.232C421.587 159.232 419.618 158.567 418.075 157.238C416.532 155.909 415.76 154.135 415.76 151.917C415.76 149.73 416.528 148.013 418.064 146.768C419.599 145.522 421.79 144.816 424.636 144.648L431.66 144.215V141.982C431.66 140.463 431.193 139.301 430.26 138.496C429.326 137.691 427.956 137.288 426.149 137.288C424.689 137.288 423.477 137.554 422.513 138.086C421.549 138.618 420.932 139.369 420.661 140.342H416.731C416.987 138.382 417.992 136.802 419.746 135.602C421.5 134.402 423.68 133.802 426.285 133.802C429.236 133.802 431.517 134.524 433.128 135.967C434.739 137.41 435.545 139.415 435.545 141.982V158.799H431.841V155.176H431.479C430.696 156.482 429.657 157.485 428.363 158.184C427.068 158.883 425.607 159.232 423.981 159.232ZM446.43 134.235H442.726V158.799H446.611V143.577C446.611 141.846 447.213 140.418 448.418 139.294C449.623 138.169 451.151 137.607 453.003 137.607C454.132 137.607 454.96 137.683 455.487 137.835V133.916C454.93 133.84 454.283 133.802 453.545 133.802C451.934 133.802 450.496 134.182 449.231 134.941C447.966 135.701 447.153 136.681 446.792 137.881H446.43V134.235ZM469.377 137.266C467.435 137.266 465.839 137.926 464.589 139.248C463.34 140.57 462.639 142.317 462.489 144.489H475.905C475.859 142.317 475.242 140.57 474.053 139.248C472.863 137.926 471.305 137.266 469.377 137.266ZM479.676 152.441H475.792C474.753 154.659 472.66 155.768 469.513 155.768C467.45 155.768 465.79 155.054 464.533 153.626C463.276 152.198 462.594 150.269 462.489 147.839V147.656H479.993V146.152C479.993 142.324 479.052 139.309 477.169 137.106C475.287 134.903 472.705 133.802 469.423 133.802C466.08 133.802 463.415 134.956 461.427 137.266C459.44 139.575 458.446 142.666 458.446 146.54C458.446 150.429 459.432 153.516 461.405 155.803C463.377 158.089 466.05 159.232 469.423 159.232C472.073 159.232 474.297 158.632 476.097 157.432C477.896 156.232 479.089 154.568 479.676 152.441ZM486.09 134.235H489.794V138.109H490.156C491.451 135.238 493.89 133.802 497.473 133.802C500.199 133.802 502.299 134.588 503.775 136.16C505.25 137.733 505.988 139.977 505.988 142.894V158.799H502.103V143.851C502.103 141.648 501.633 140.011 500.692 138.94C499.751 137.869 498.309 137.334 496.367 137.334C494.409 137.334 492.855 137.953 491.703 139.191C490.551 140.429 489.975 142.119 489.975 144.261V158.799H486.09V134.235ZM514.638 155.768C516.49 158.077 518.975 159.232 522.091 159.232C523.778 159.232 525.306 158.848 526.676 158.081C528.046 157.314 529.116 156.247 529.883 154.88H530.245V158.799H533.949V124.482H530.064V138.109H529.725C529.033 136.772 528.013 135.72 526.665 134.953C525.317 134.186 523.793 133.802 522.091 133.802C518.99 133.802 516.509 134.96 514.65 137.277C512.79 139.594 511.86 142.674 511.86 146.517C511.86 150.376 512.786 153.459 514.638 155.768ZM522.995 137.334C520.782 137.334 519.043 138.151 517.778 139.784C516.513 141.417 515.881 143.661 515.881 146.517C515.881 149.388 516.509 151.636 517.767 153.262C519.024 154.887 520.767 155.7 522.995 155.7C525.208 155.7 526.955 154.88 528.235 153.239C529.515 151.598 530.155 149.358 530.155 146.517C530.155 143.707 529.511 141.474 528.224 139.818C526.936 138.162 525.193 137.334 522.995 137.334ZM556.105 155.768C557.957 158.077 560.441 159.232 563.558 159.232C565.245 159.232 566.773 158.848 568.143 158.081C569.513 157.314 570.582 156.247 571.35 154.88H571.712V158.799H575.415V124.482H571.531V138.109H571.192C570.499 136.772 569.479 135.72 568.132 134.953C566.784 134.186 565.26 133.802 563.558 133.802C560.456 133.802 557.976 134.96 556.116 137.277C554.257 139.594 553.327 142.674 553.327 146.517C553.327 150.376 554.253 153.459 556.105 155.768ZM564.462 137.334C562.248 137.334 560.509 138.151 559.245 139.784C557.98 141.417 557.347 143.661 557.347 146.517C557.347 149.388 557.976 151.636 559.233 153.262C560.49 154.887 562.233 155.7 564.462 155.7C566.675 155.7 568.422 154.88 569.702 153.239C570.981 151.598 571.621 149.358 571.621 146.517C571.621 143.707 570.978 141.474 569.69 139.818C568.403 138.162 566.66 137.334 564.462 137.334ZM583.049 134.235V158.799H586.934V134.235H583.049ZM586.911 128.447C586.384 128.979 585.744 129.245 584.991 129.245C584.238 129.245 583.598 128.975 583.071 128.436C582.544 127.896 582.281 127.255 582.281 126.51C582.281 125.766 582.544 125.124 583.071 124.585C583.598 124.045 584.238 123.776 584.991 123.776C585.744 123.776 586.384 124.045 586.911 124.585C587.438 125.124 587.701 125.766 587.701 126.51C587.701 127.255 587.438 127.9 586.911 128.447ZM599.266 139.248C600.515 137.926 602.111 137.266 604.054 137.266C605.981 137.266 607.539 137.926 608.729 139.248C609.918 140.57 610.536 142.317 610.581 144.489H597.165C597.316 142.317 598.016 140.57 599.266 139.248ZM610.468 152.441H614.353C613.766 154.568 612.572 156.232 610.773 157.432C608.974 158.632 606.749 159.232 604.099 159.232C600.726 159.232 598.054 158.089 596.081 155.803C594.109 153.516 593.123 150.429 593.123 146.54C593.123 142.666 594.116 139.575 596.104 137.266C598.091 134.956 600.756 133.802 604.099 133.802C607.382 133.802 609.964 134.903 611.846 137.106C613.728 139.309 614.669 142.324 614.669 146.152V147.656H597.165V147.839C597.271 150.269 597.952 152.198 599.209 153.626C600.467 155.054 602.127 155.768 604.189 155.768C607.336 155.768 609.429 154.659 610.468 152.441ZM653.12 137.266C651.261 134.956 648.78 133.802 645.679 133.802C644.022 133.802 642.505 134.205 641.128 135.01C639.75 135.815 638.67 136.924 637.887 138.337H637.525V134.235H633.821V167.002H637.706V155.108H638.067C638.73 156.414 639.731 157.428 641.071 158.15C642.411 158.871 643.947 159.232 645.679 159.232C648.765 159.232 651.242 158.074 653.109 155.757C654.976 153.44 655.91 150.36 655.91 146.517C655.91 142.658 654.98 139.575 653.12 137.266ZM644.752 155.7C646.981 155.7 648.727 154.887 649.992 153.262C651.257 151.636 651.889 149.388 651.889 146.517C651.889 143.646 651.261 141.398 650.003 139.772C648.746 138.147 647.003 137.334 644.775 137.334C642.577 137.334 640.83 138.158 639.535 139.806C638.24 141.455 637.593 143.691 637.593 146.517C637.593 149.327 638.236 151.56 639.524 153.216C640.811 154.872 642.554 155.7 644.752 155.7ZM674.486 154.037C673.168 155.206 671.508 155.791 669.506 155.791C668.06 155.791 666.878 155.438 665.96 154.732C665.041 154.025 664.582 153.057 664.582 151.826C664.582 150.581 665.011 149.631 665.869 148.978C666.728 148.325 668.075 147.937 669.912 147.816L676.462 147.383V149.639C676.462 151.401 675.803 152.867 674.486 154.037ZM668.783 159.232C666.389 159.232 664.42 158.567 662.877 157.238C661.334 155.909 660.562 154.135 660.562 151.917C660.562 149.73 661.33 148.013 662.866 146.768C664.402 145.522 666.592 144.816 669.438 144.648L676.462 144.215V141.982C676.462 140.463 675.995 139.301 675.062 138.496C674.128 137.691 672.758 137.288 670.951 137.288C669.491 137.288 668.279 137.554 667.315 138.086C666.351 138.618 665.734 139.369 665.463 140.342H661.533C661.789 138.382 662.794 136.802 664.548 135.602C666.302 134.402 668.482 133.802 671.087 133.802C674.038 133.802 676.319 134.524 677.93 135.967C679.541 137.41 680.347 139.415 680.347 141.982V158.799H676.643V155.176H676.281C675.498 156.482 674.46 157.485 673.165 158.184C671.87 158.883 670.409 159.232 668.783 159.232ZM689.562 135.853C687.83 137.22 686.964 138.921 686.964 140.957C686.964 142.719 687.495 144.128 688.557 145.184C689.618 146.24 691.301 147.049 693.604 147.611L697.783 148.636C700.357 149.274 701.645 150.429 701.645 152.1C701.645 153.224 701.118 154.143 700.064 154.857C699.01 155.571 697.662 155.928 696.021 155.928C694.5 155.928 693.251 155.628 692.272 155.028C691.293 154.428 690.638 153.596 690.307 152.533H686.309C686.52 154.568 687.491 156.194 689.223 157.409C690.954 158.624 693.175 159.232 695.885 159.232C698.686 159.232 701.012 158.537 702.864 157.147C704.716 155.757 705.642 153.976 705.642 151.803C705.642 150.056 705.089 148.651 703.982 147.588C702.876 146.525 701.163 145.712 698.844 145.15L695.095 144.238C693.65 143.889 692.584 143.437 691.899 142.882C691.214 142.328 690.872 141.633 690.872 140.797C690.872 139.719 691.365 138.838 692.351 138.154C693.337 137.471 694.56 137.129 696.021 137.129C697.466 137.129 698.652 137.421 699.578 138.006C700.504 138.591 701.103 139.385 701.374 140.387H705.213C704.957 138.367 704.001 136.764 702.345 135.579C700.689 134.394 698.588 133.802 696.044 133.802C693.454 133.802 691.293 134.486 689.562 135.853ZM710.724 140.957C710.724 138.921 711.59 137.22 713.321 135.853C715.053 134.486 717.214 133.802 719.803 133.802C722.348 133.802 724.448 134.394 726.105 135.579C727.761 136.764 728.717 138.367 728.973 140.387H725.133C724.862 139.385 724.264 138.591 723.338 138.006C722.412 137.421 721.226 137.129 719.781 137.129C718.32 137.129 717.097 137.471 716.111 138.154C715.124 138.838 714.631 139.719 714.631 140.797C714.631 141.633 714.974 142.328 715.659 142.882C716.344 143.437 717.409 143.889 718.855 144.238L722.604 145.15C724.923 145.712 726.635 146.525 727.742 147.588C728.849 148.651 729.402 150.056 729.402 151.803C729.402 153.976 728.476 155.757 726.624 157.147C724.772 158.537 722.446 159.232 719.645 159.232C716.935 159.232 714.714 158.624 712.983 157.409C711.251 156.194 710.28 154.568 710.069 152.533H714.067C714.398 153.596 715.053 154.428 716.032 155.028C717.01 155.628 718.26 155.928 719.781 155.928C721.422 155.928 722.77 155.571 723.824 154.857C724.878 154.143 725.405 153.224 725.405 152.1C725.405 150.429 724.117 149.274 721.542 148.636L717.364 147.611C715.06 147.049 713.378 146.24 712.316 145.184C711.255 144.128 710.724 142.719 710.724 140.957ZM740.424 139.248C741.674 137.926 743.27 137.266 745.212 137.266C747.139 137.266 748.698 137.926 749.887 139.248C751.077 140.57 751.694 142.317 751.739 144.489H738.324C738.474 142.317 739.174 140.57 740.424 139.248ZM751.626 152.441H755.511C754.923 154.568 753.73 156.232 751.931 157.432C750.132 158.632 747.907 159.232 745.257 159.232C741.884 159.232 739.212 158.089 737.239 155.803C735.267 153.516 734.281 150.429 734.281 146.54C734.281 142.666 735.274 139.575 737.262 137.266C739.249 134.956 741.914 133.802 745.257 133.802C748.539 133.802 751.122 134.903 753.004 137.106C754.886 139.309 755.827 142.324 755.827 146.152V147.656H738.323V147.839C738.429 150.269 739.11 152.198 740.367 153.626C741.625 155.054 743.285 155.768 745.347 155.768C748.494 155.768 750.587 154.659 751.626 152.441ZM765.629 134.235H761.925V158.799H765.809V144.261C765.809 142.119 766.385 140.429 767.537 139.191C768.689 137.953 770.244 137.334 772.201 137.334C774.143 137.334 775.585 137.869 776.526 138.94C777.467 140.011 777.938 141.648 777.938 143.851V158.799H781.822V142.894C781.822 139.977 781.085 137.733 779.609 136.16C778.133 134.588 776.033 133.802 773.308 133.802C769.724 133.802 767.285 135.238 765.99 138.109H765.629V134.235ZM797.926 159.232C794.81 159.232 792.325 158.077 790.473 155.768C788.621 153.459 787.695 150.376 787.695 146.517C787.695 142.674 788.625 139.594 790.484 137.277C792.344 134.96 794.825 133.802 797.926 133.802C799.628 133.802 801.152 134.186 802.5 134.953C803.847 135.72 804.868 136.772 805.56 138.109H805.899V124.482H809.784V158.799H806.08V154.88H805.718C804.95 156.247 803.881 157.314 802.511 158.081C801.141 158.848 799.613 159.232 797.926 159.232ZM793.612 139.784C794.877 138.151 796.616 137.334 798.829 137.334C801.028 137.334 802.771 138.162 804.058 139.818C805.345 141.474 805.989 143.707 805.989 146.517C805.989 149.358 805.349 151.598 804.069 153.239C802.789 154.88 801.043 155.7 798.829 155.7C796.601 155.7 794.858 154.887 793.601 153.262C792.344 151.636 791.715 149.388 791.715 146.517C791.715 143.661 792.347 141.417 793.612 139.784ZM827.038 137.266C825.096 137.266 823.5 137.926 822.25 139.248C821 140.57 820.3 142.317 820.15 144.489H833.565C833.52 142.317 832.903 140.57 831.713 139.248C830.524 137.926 828.966 137.266 827.038 137.266ZM837.337 152.441H833.453C832.414 154.659 830.321 155.768 827.174 155.768C825.111 155.768 823.451 155.054 822.194 153.626C820.936 152.198 820.255 150.269 820.15 147.839V147.656H837.653V146.152C837.653 142.324 836.712 139.309 834.83 137.106C832.948 134.903 830.366 133.802 827.083 133.802C823.741 133.802 821.076 134.956 819.088 137.266C817.101 139.575 816.107 142.666 816.107 146.54C816.107 150.429 817.093 153.516 819.066 155.803C821.038 158.089 823.711 159.232 827.083 159.232C829.733 159.232 831.958 158.632 833.757 157.432C835.557 156.232 836.75 154.568 837.337 152.441ZM855.744 150.209H859.855C860.111 151.925 860.992 153.292 862.497 154.31C864.003 155.328 865.915 155.837 868.234 155.837C870.432 155.837 872.251 155.301 873.688 154.23C875.126 153.159 875.845 151.811 875.845 150.186C875.845 148.788 875.318 147.63 874.264 146.711C873.21 145.792 871.562 145.044 869.318 144.466L865.14 143.373C862.189 142.628 860.043 141.55 858.703 140.137C857.363 138.724 856.693 136.848 856.693 134.508C856.693 131.713 857.751 129.454 859.866 127.729C861.982 126.005 864.763 125.143 868.212 125.143C871.358 125.143 873.993 125.994 876.116 127.695C878.239 129.397 879.384 131.577 879.549 134.235H875.461C875.175 132.549 874.381 131.231 873.079 130.282C871.776 129.332 870.109 128.857 868.076 128.857C865.908 128.857 864.165 129.362 862.848 130.373C861.53 131.383 860.871 132.716 860.871 134.372C860.871 135.663 861.357 136.711 862.328 137.516C863.234 138.268 864.695 138.92 866.71 139.473L870.56 140.501C873.933 141.352 876.354 142.491 877.822 143.919C879.29 145.347 880.024 147.269 880.024 149.684C880.024 152.707 878.924 155.111 876.726 156.896C874.528 158.681 871.569 159.574 867.85 159.574C864.402 159.574 861.575 158.723 859.369 157.022C857.164 155.32 855.955 153.049 855.744 150.209ZM896.285 155.7C893.981 155.7 892.205 154.903 890.955 153.307C889.705 151.697 889.08 149.434 889.08 146.517C889.08 143.6 889.705 141.341 890.955 139.738C892.205 138.135 893.981 137.334 896.285 137.334C898.589 137.334 900.366 138.135 901.615 139.738C902.865 141.341 903.49 143.6 903.49 146.517C903.49 149.434 902.865 151.693 901.615 153.296C900.366 154.899 898.589 155.7 896.285 155.7ZM904.484 155.837C902.481 158.1 899.748 159.232 896.285 159.232C892.822 159.232 890.086 158.096 888.076 155.825C886.065 153.554 885.06 150.451 885.06 146.517C885.06 142.567 886.062 139.461 888.064 137.197C890.067 134.934 892.807 133.802 896.285 133.802C899.763 133.802 902.504 134.934 904.506 137.197C906.509 139.461 907.51 142.567 907.51 146.517C907.51 150.451 906.501 153.558 904.484 155.837ZM915.235 137.516V158.799H919.119V137.516H924.698V134.235H919.119V131.956C919.119 129.328 920.331 128.014 922.755 128.014C923.584 128.014 924.306 128.082 924.924 128.219V124.938C924.02 124.786 923.222 124.71 922.53 124.71C920.121 124.71 918.302 125.284 917.075 126.43C915.848 127.577 915.235 129.381 915.235 131.842V134.235H911.192V137.516H915.235ZM931.97 127.877H935.855V134.235H941.275V137.516H935.855V151.416C935.855 152.859 936.141 153.907 936.713 154.561C937.285 155.214 938.204 155.54 939.468 155.54C940.025 155.54 940.628 155.51 941.275 155.449V158.753C940.417 158.905 939.657 158.981 938.994 158.981C936.48 158.981 934.68 158.472 933.596 157.455C932.512 156.437 931.97 154.758 931.97 152.419V137.516H928.04V134.235H931.97V127.877ZM970.952 158.799L977.773 134.235H973.866L969.077 153.877H968.716L963.273 134.235H959.546L954.103 153.877H953.742L948.954 134.235H945.024L951.845 158.799H955.775L961.195 139.795H961.557L967 158.799H970.952ZM989.789 155.791C991.791 155.791 993.451 155.206 994.769 154.037C996.086 152.867 996.745 151.401 996.745 149.639V147.383L990.195 147.816C988.358 147.937 987.011 148.325 986.152 148.978C985.294 149.631 984.865 150.581 984.865 151.826C984.865 153.057 985.324 154.025 986.243 154.732C987.161 155.438 988.343 155.791 989.789 155.791ZM983.16 157.238C984.703 158.567 986.672 159.232 989.066 159.232C990.692 159.232 992.152 158.883 993.447 158.184C994.742 157.485 995.781 156.482 996.564 155.176H996.925V158.799H1000.63V141.982C1000.63 139.415 999.824 137.41 998.213 135.967C996.602 134.524 994.321 133.802 991.369 133.802C988.765 133.802 986.585 134.402 984.831 135.602C983.077 136.802 982.072 138.382 981.816 140.342H985.746C986.017 139.369 986.634 138.618 987.598 138.086C988.561 137.554 989.773 137.288 991.234 137.288C993.041 137.288 994.411 137.691 995.344 138.496C996.278 139.301 996.745 140.463 996.745 141.982V144.215L989.721 144.648C986.875 144.816 984.684 145.522 983.148 146.768C981.613 148.013 980.845 149.73 980.845 151.917C980.845 154.135 981.616 155.909 983.16 157.238ZM1007.81 134.235H1011.52V137.881H1011.88C1012.24 136.681 1013.05 135.701 1014.32 134.941C1015.58 134.182 1017.02 133.802 1018.63 133.802C1019.37 133.802 1020.02 133.84 1020.57 133.916V137.835C1020.05 137.683 1019.22 137.607 1018.09 137.607C1016.24 137.607 1014.71 138.169 1013.5 139.294C1012.3 140.418 1011.7 141.846 1011.7 143.577V158.799H1007.81V134.235ZM1029.67 139.248C1030.92 137.926 1032.52 137.266 1034.46 137.266C1036.39 137.266 1037.95 137.926 1039.14 139.248C1040.33 140.57 1040.94 142.317 1040.99 144.489H1027.57C1027.72 142.317 1028.42 140.57 1029.67 139.248ZM1040.88 152.441H1044.76C1044.17 154.568 1042.98 156.232 1041.18 157.432C1039.38 158.632 1037.16 159.232 1034.51 159.232C1031.13 159.232 1028.46 158.089 1026.49 155.803C1024.52 153.516 1023.53 150.429 1023.53 146.54C1023.53 142.666 1024.52 139.575 1026.51 137.266C1028.5 134.956 1031.16 133.802 1034.51 133.802C1037.79 133.802 1040.37 134.903 1042.25 137.106C1044.14 139.309 1045.08 142.324 1045.08 146.152V147.656H1027.57V147.839C1027.68 150.269 1028.36 152.198 1029.62 153.626C1030.87 155.054 1032.53 155.768 1034.6 155.768C1037.74 155.768 1039.84 154.659 1040.88 152.441ZM1065.86 137.516V158.799H1069.74V137.516H1075.32V134.235H1069.74V131.956C1069.74 129.328 1070.95 128.014 1073.38 128.014C1074.2 128.014 1074.93 128.082 1075.54 128.219V124.938C1074.64 124.786 1073.84 124.71 1073.15 124.71C1070.74 124.71 1068.92 125.284 1067.7 126.43C1066.47 127.577 1065.86 129.381 1065.86 131.842V134.235H1061.81V137.516H1065.86ZM1081.06 158.799V134.235H1084.94V158.799H1081.06ZM1083 129.245C1083.75 129.245 1084.39 128.979 1084.92 128.447C1085.44 127.9 1085.71 127.255 1085.71 126.51C1085.71 125.766 1085.44 125.124 1084.92 124.585C1084.39 124.045 1083.75 123.776 1083 123.776C1082.25 123.776 1081.61 124.045 1081.08 124.585C1080.55 125.124 1080.29 125.766 1080.29 126.51C1080.29 127.255 1080.55 127.896 1081.08 128.436C1081.61 128.975 1082.25 129.245 1083 129.245ZM1092.35 134.235H1096.05V138.109H1096.41C1097.71 135.238 1100.15 133.802 1103.73 133.802C1106.46 133.802 1108.56 134.588 1110.03 136.16C1111.51 137.733 1112.25 139.977 1112.25 142.894V158.799H1108.36V143.851C1108.36 141.648 1107.89 140.011 1106.95 138.94C1106.01 137.869 1104.57 137.334 1102.62 137.334C1100.67 137.334 1099.11 137.953 1097.96 139.191C1096.81 140.429 1096.23 142.119 1096.23 144.261V158.799H1092.35V134.235ZM1120.9 155.768C1122.75 158.077 1125.23 159.232 1128.35 159.232C1130.04 159.232 1131.56 158.848 1132.93 158.081C1134.3 157.314 1135.37 156.247 1136.14 154.88H1136.5V158.799H1140.21V124.482H1136.32V138.109H1135.98C1135.29 136.772 1134.27 135.72 1132.92 134.953C1131.58 134.186 1130.05 133.802 1128.35 133.802C1125.25 133.802 1122.77 134.96 1120.91 137.277C1119.05 139.594 1118.12 142.674 1118.12 146.517C1118.12 150.376 1119.04 153.459 1120.9 155.768ZM1129.25 137.334C1127.04 137.334 1125.3 138.151 1124.04 139.784C1122.77 141.417 1122.14 143.661 1122.14 146.517C1122.14 149.388 1122.77 151.636 1124.02 153.262C1125.28 154.887 1127.02 155.7 1129.25 155.7C1131.47 155.7 1133.21 154.88 1134.49 153.239C1135.77 151.598 1136.41 149.358 1136.41 146.517C1136.41 143.707 1135.77 141.474 1134.48 139.818C1133.19 138.162 1131.45 137.334 1129.25 137.334ZM1152.67 139.248C1153.92 137.926 1155.52 137.266 1157.46 137.266C1159.39 137.266 1160.95 137.926 1162.14 139.248C1163.33 140.57 1163.94 142.317 1163.99 144.489H1150.57C1150.72 142.317 1151.42 140.57 1152.67 139.248ZM1163.88 152.441H1167.76C1167.17 154.568 1165.98 156.232 1164.18 157.432C1162.38 158.632 1160.16 159.232 1157.51 159.232C1154.13 159.232 1151.46 158.089 1149.49 155.803C1147.52 153.516 1146.53 150.429 1146.53 146.54C1146.53 142.666 1147.52 139.575 1149.51 137.266C1151.5 134.956 1154.16 133.802 1157.51 133.802C1160.79 133.802 1163.37 134.903 1165.25 137.106C1167.14 139.309 1168.08 142.324 1168.08 146.152V147.656H1150.57V147.839C1150.68 150.269 1151.36 152.198 1152.62 153.626C1153.87 155.054 1155.53 155.768 1157.6 155.768C1160.74 155.768 1162.84 154.659 1163.88 152.441ZM1177.88 134.235H1174.18V158.799H1178.06V144.261C1178.06 142.119 1178.64 140.429 1179.79 139.191C1180.94 137.953 1182.49 137.334 1184.45 137.334C1186.39 137.334 1187.84 137.869 1188.78 138.94C1189.72 140.011 1190.19 141.648 1190.19 143.851V158.799H1194.07V142.894C1194.07 139.977 1193.34 137.733 1191.86 136.16C1190.38 134.588 1188.28 133.802 1185.56 133.802C1181.97 133.802 1179.54 135.238 1178.24 138.109H1177.88V134.235Z" fill="#282C47"/>
<path fill-rule="evenodd" clip-rule="evenodd" d="M601.601 11.4216C598.51 11.4216 596.116 12.2428 594.42 13.8851C592.723 15.5275 591.875 17.8603 591.875 20.8837V26.5945H604.258V36.8964H591.875V87.174H577.796V36.8964H568.466V26.5945H577.796V20.8837C577.796 16.4419 578.663 12.6534 580.397 9.51803C582.131 6.38267 584.619 4.01251 587.86 2.4075C591.102 0.802493 594.947 0 599.396 0C601.883 0 604.484 0.335927 607.199 1.00779L606.859 11.9255C605.389 11.5896 603.636 11.4216 601.601 11.4216ZM443.842 42.3272C448.554 46.2091 455.245 49.4751 463.916 52.1252C468.665 53.5436 472.275 54.9059 474.744 56.2123C477.213 57.5187 478.919 58.9278 479.861 60.4395C480.804 61.9512 481.275 63.8268 481.275 66.0663C481.275 69.351 480.012 71.9638 477.486 73.9047C474.961 75.8456 471.323 76.8161 466.573 76.8161C461.22 76.8161 456.932 75.631 453.709 73.2608C450.486 70.8906 448.875 67.2608 448.875 62.3711H434.23C434.23 67.8953 435.766 72.6169 438.838 76.5361C441.91 80.4554 445.925 83.3947 450.882 85.3543C455.839 87.3139 461.07 88.2937 466.573 88.2937C472.492 88.2937 477.665 87.3886 482.095 85.5783C486.524 83.768 489.945 81.1832 492.357 77.8239C494.77 74.4646 495.976 70.5081 495.976 65.9543C495.976 61.6619 494.996 57.9107 493.036 54.7007C491.076 51.4906 488.107 48.7099 484.13 46.3584C480.153 44.0069 475.036 41.9166 468.778 40.0877C462.785 38.3707 458.393 36.5044 455.604 34.4888C452.814 32.4732 451.419 30.0098 451.419 27.0984C451.419 23.8137 452.654 21.1543 455.123 19.12C457.592 17.0857 461.201 16.0686 465.951 16.0686C471.003 16.0686 474.819 17.2817 477.401 19.7079C479.984 22.1341 481.275 25.3814 481.275 29.4499H495.863C495.863 24.8588 494.657 20.669 492.244 16.8805C489.832 13.0919 486.373 10.0872 481.868 7.86633C477.364 5.64544 472.115 4.53501 466.121 4.53501C460.391 4.53501 455.302 5.49614 450.854 7.41842C446.406 9.3407 442.947 12.0188 440.478 15.4528C438.009 18.8867 436.774 22.7872 436.774 27.1543C436.774 33.3878 439.13 38.4453 443.842 42.3272ZM365.076 87.1741H350.487V60.8595L351.901 24.635L327.926 87.1741H317.465L293.49 24.691L294.961 60.8595V87.1741H280.316V5.65491H299.315L322.724 67.6901L346.077 5.65491H365.076V87.1741ZM429.31 26.5946L404.939 96.3562C403.393 100.537 401.179 104.129 398.295 107.134C395.411 110.139 391.293 111.641 385.94 111.641C384.093 111.641 381.85 111.305 379.211 110.633V99.9394L381.812 100.051C385.167 100.051 387.721 99.4635 389.474 98.2878C391.227 97.112 392.612 95.0498 393.63 92.101L395.553 86.9501L374.066 26.5946H389.276L401.999 67.2422L414.325 26.5946H429.31ZM504.57 56.3243C504.57 50.4268 505.711 45.1453 507.991 40.4796C510.272 35.8138 513.561 32.1466 517.858 29.4778C522.156 26.809 527.207 25.4747 533.012 25.4747C538.893 25.4747 543.991 26.809 548.307 29.4778C552.624 32.1466 555.922 35.8138 558.203 40.4796C560.483 45.1453 561.624 50.4268 561.624 56.3243V57.5C561.624 63.3975 560.483 68.6791 558.203 73.3448C555.922 78.0105 552.633 81.6684 548.336 84.3185C544.038 86.9686 538.968 88.2937 533.125 88.2937C527.282 88.2937 522.203 86.9686 517.887 84.3185C513.57 81.6684 510.272 78.0105 507.991 73.3448C505.711 68.6791 504.57 63.3975 504.57 57.5V56.3243ZM522.269 71.6092C519.856 67.9513 518.65 63.2483 518.65 57.5001V56.3244C518.65 52.6664 519.168 49.3538 520.205 46.3864C521.242 43.419 522.834 41.0582 524.983 39.3039C527.132 37.5496 529.808 36.6724 533.012 36.6724C536.254 36.6724 538.968 37.5496 541.155 39.3039C543.341 41.0582 544.952 43.419 545.989 46.3864C547.026 49.3538 547.544 52.6664 547.544 56.3244V57.5001C547.544 61.1954 547.026 64.5173 545.989 67.4661C544.952 70.4148 543.35 72.757 541.183 74.4926C539.015 76.2283 536.329 77.0961 533.125 77.0961C528.3 77.0961 524.681 75.2672 522.269 71.6092ZM642.765 76.2003C641.069 76.5736 639.467 76.7602 637.959 76.7602C635.848 76.7602 634.264 76.303 633.209 75.3885C632.153 74.474 631.626 72.7477 631.626 70.2095V36.8964H642.369V26.5945H631.626V11.8136H617.546V26.5945H607.594V36.8964H617.546V71.1613C617.546 77.1335 618.979 81.4819 621.844 84.2067C624.708 86.9314 628.629 88.2938 633.605 88.2938C636.997 88.2938 640.051 87.8459 642.765 86.9501V76.2003ZM729.617 26.5946L713.049 87.1741H701.458L688.509 46.0785L675.787 87.1741H664.195L647.628 26.5946H661.311L670.98 67.5221L683.364 26.5946H693.881L706.377 68.026L715.933 26.5946H729.617ZM789.441 86.2221C787.895 82.9748 787.123 78.5891 787.123 73.0648V46.3584C787.123 41.8419 786.114 38.0161 784.097 34.8807C782.081 31.7454 779.282 29.3939 775.701 27.8262C772.119 26.2585 767.992 25.4747 763.317 25.4747C758.341 25.4747 753.922 26.3425 750.058 28.0781C746.194 29.8138 743.216 32.1093 741.124 34.9647C739.032 37.8201 737.986 40.8715 737.986 44.1188H752.065C752.065 42.5885 752.499 41.2074 753.366 39.9757C754.233 38.7439 755.458 37.7735 757.041 37.0643C758.624 36.3551 760.452 36.0005 762.526 36.0005C765.994 36.0005 768.614 36.9056 770.385 38.7159C772.157 40.5262 773.043 43.0364 773.043 46.2464V50.1656H764.561C755.665 50.1656 748.795 51.8825 743.951 55.3165C739.107 58.7505 736.685 63.6961 736.685 70.1534C736.685 73.5874 737.571 76.6854 739.343 79.4475C741.114 82.2096 743.583 84.3745 746.75 85.9422C749.916 87.5099 753.497 88.2937 757.493 88.2937C760.886 88.2937 763.921 87.6778 766.597 86.4461C769.273 85.2143 771.573 83.572 773.495 81.5191C773.948 83.9826 774.475 85.8675 775.079 87.1739H789.441V86.2221ZM760.207 77.1521C763.148 77.1521 765.758 76.4615 768.039 75.0805C770.319 73.6994 771.987 72.0385 773.043 70.0975V58.7879H765.692C760.792 58.7879 757.079 59.665 754.553 61.4193C752.027 63.1736 750.764 65.6371 750.764 68.8098C750.764 71.2733 751.594 73.2795 753.252 74.8285C754.911 76.3776 757.229 77.1521 760.207 77.1521ZM831.482 25.6986C830.483 25.5493 829.588 25.4747 828.796 25.4747C825.78 25.4747 823.123 26.1652 820.823 27.5462C818.524 28.9273 816.601 30.8869 815.056 33.425L814.66 26.5944H801.259V87.1739H815.339V45.9104C817.487 41.2447 821.709 38.9119 828.004 38.9119C829.852 38.9119 831.718 39.0612 833.602 39.3598L833.715 26.2025C833.225 26.0159 832.481 25.8479 831.482 25.6986ZM893.935 61.2513H854.071C854.335 64.3493 855.146 67.0927 856.503 69.4816C857.86 71.8704 859.697 73.7367 862.016 75.0804C864.334 76.4241 867.039 77.096 870.13 77.096C876.463 77.096 881.552 74.6325 885.397 69.7055L892.917 76.928C890.693 80.1754 887.602 82.8815 883.644 85.0464C879.686 87.2113 874.898 88.2937 869.282 88.2937C863.326 88.2937 858.124 87.0153 853.675 84.4585C849.227 81.9017 845.816 78.4024 843.441 73.9607C841.066 69.5189 839.879 64.536 839.879 59.0117V56.7162C839.879 50.4828 841.085 45.0053 843.497 40.2836C845.91 35.5619 849.227 31.9133 853.449 29.3379C857.671 26.7624 862.421 25.4747 867.698 25.4747C873.466 25.4747 878.31 26.7251 882.23 29.2259C886.151 31.7267 889.082 35.226 891.023 39.7237C892.964 44.2215 893.935 49.4377 893.935 55.3725V61.2513ZM876.802 40.4517C878.762 42.9711 879.837 46.1904 880.025 50.1097V51.1734H854.354C854.995 46.5824 856.446 43.0178 858.708 40.4796C860.97 37.9415 863.948 36.6724 867.642 36.6724C871.789 36.6724 874.842 37.9322 876.802 40.4517ZM931.311 52.1252C922.641 49.4751 915.95 46.2091 911.238 42.3272C906.526 38.4453 904.17 33.3878 904.17 27.1543C904.17 22.7872 905.404 18.8867 907.874 15.4528C910.343 12.0188 913.801 9.3407 918.249 7.41842C922.698 5.49614 927.786 4.53501 933.516 4.53501C939.51 4.53501 944.759 5.64544 949.264 7.86633C953.769 10.0872 957.227 13.0919 959.64 16.8805C962.052 20.669 963.259 24.8588 963.259 29.4499H948.67C948.67 25.3814 947.379 22.1341 944.797 19.7079C942.215 17.2817 938.398 16.0686 933.347 16.0686C928.597 16.0686 924.988 17.0857 922.518 19.12C920.049 21.1543 918.815 23.8137 918.815 27.0984C918.815 30.0098 920.21 32.4732 922.999 34.4888C925.582 36.3551 929.538 38.0934 934.868 39.7037L936.174 40.0877C942.432 41.9166 947.549 44.0069 951.526 46.3584C955.503 48.7099 958.471 51.4906 960.432 54.7007C962.392 57.9107 963.372 61.6619 963.372 65.9543C963.372 70.5081 962.166 74.4646 959.753 77.8239C957.34 81.1832 953.919 83.768 949.49 85.5783C945.061 87.3886 939.887 88.2937 933.969 88.2937C928.465 88.2937 923.235 87.3139 918.278 85.3543C913.321 83.3947 909.306 80.4554 906.234 76.5361C903.161 72.6169 901.625 67.8953 901.625 62.3711H916.27C916.27 67.2608 917.882 70.8906 921.105 73.2608C924.328 75.631 928.616 76.8161 933.969 76.8161C938.719 76.8161 942.356 75.8456 944.882 73.9047C947.407 71.9638 948.67 69.351 948.67 66.0663C948.67 63.8268 948.199 61.9512 947.257 60.4395C946.314 58.9278 944.609 57.5187 942.139 56.2123C939.67 54.9059 936.061 53.5436 931.311 52.1252ZM1021.33 77.7119C1023.59 74.4645 1024.78 70.9 1024.89 67.0181H1011.6C1011.49 68.959 1010.91 70.6947 1009.85 72.225C1008.8 73.7554 1007.38 74.9498 1005.61 75.8083C1003.84 76.6668 1001.88 77.096 999.73 77.096C990.607 77.096 986.046 70.6761 986.046 57.836V55.9324C986.046 50.3335 987.064 45.7238 989.099 42.1032C991.135 38.4826 994.659 36.6724 999.673 36.6724C1002.05 36.6724 1004.11 37.1949 1005.86 38.24C1007.62 39.2851 1008.98 40.6942 1009.96 42.4672C1010.94 44.2401 1011.49 46.209 1011.6 48.3739H1024.89C1024.78 43.8948 1023.67 39.9197 1021.56 36.4484C1019.44 32.9771 1016.51 30.2803 1012.76 28.3581C1009.01 26.4358 1004.71 25.4747 999.843 25.4747C993.811 25.4747 988.704 26.8184 984.519 29.5058C980.335 32.1933 977.197 35.8418 975.105 40.4516C973.012 45.0613 971.966 50.2215 971.966 55.9324V57.836C971.966 63.5468 973.003 68.707 975.076 73.3168C977.15 77.9265 980.288 81.5751 984.491 84.2625C988.694 86.95 993.83 88.2937 999.899 88.2937C1004.39 88.2937 1008.51 87.3419 1012.28 85.4383C1016.05 83.5347 1019.07 80.9592 1021.33 77.7119ZM1032.58 56.3243C1032.58 50.4268 1033.72 45.1453 1036 40.4796C1038.28 35.8138 1041.57 32.1466 1045.87 29.4778C1050.17 26.809 1055.22 25.4747 1061.02 25.4747C1066.9 25.4747 1072 26.809 1076.32 29.4778C1080.64 32.1466 1083.93 35.8138 1086.21 40.4796C1088.5 45.1453 1089.64 50.4268 1089.64 56.3243V57.5C1089.64 63.3975 1088.5 68.6791 1086.21 73.3448C1083.93 78.0105 1080.64 81.6684 1076.35 84.3185C1072.05 86.9686 1066.98 88.2937 1061.14 88.2937C1055.29 88.2937 1050.21 86.9686 1045.9 84.3185C1041.58 81.6684 1038.28 78.0105 1036 73.3448C1033.72 68.6791 1032.58 63.3975 1032.58 57.5V56.3243ZM1050.28 71.6092C1047.87 67.9513 1046.66 63.2483 1046.66 57.5001V56.3244C1046.66 52.6664 1047.18 49.3538 1048.22 46.3864C1049.25 43.419 1050.85 41.0582 1052.99 39.3039C1055.14 37.5496 1057.82 36.6724 1061.02 36.6724C1064.27 36.6724 1066.98 37.5496 1069.17 39.3039C1071.35 41.0582 1072.96 43.419 1074 46.3864C1075.04 49.3538 1075.56 52.6664 1075.56 56.3244V57.5001C1075.56 61.1954 1075.04 64.5173 1074 67.4661C1072.96 70.4148 1071.36 72.757 1069.19 74.4926C1067.03 76.2283 1064.34 77.0961 1061.14 77.0961C1056.31 77.0961 1052.69 75.2672 1050.28 71.6092ZM1151.66 26.5946V87.1741H1138.38L1138.04 81.1833C1134.04 85.9237 1128.33 88.2938 1120.9 88.2938C1114.57 88.2938 1109.61 86.4649 1106.03 82.807C1102.45 79.149 1100.66 73.4569 1100.66 65.7305V26.5946H1114.74V65.8425C1114.74 69.799 1115.62 72.6264 1117.37 74.3247C1119.12 76.023 1121.43 76.8722 1124.3 76.8722C1130.82 76.8722 1135.23 74.5767 1137.53 69.9856V26.5946H1151.66ZM1194.07 76.2003C1192.38 76.5736 1190.77 76.7602 1189.27 76.7602C1187.16 76.7602 1185.57 76.303 1184.52 75.3885C1183.46 74.474 1182.93 72.7477 1182.93 70.2095V36.8964H1193.68V26.5945H1182.93V11.8136H1168.85V26.5945H1158.9V36.8964H1168.85V71.1613C1168.85 77.1335 1170.29 81.4819 1173.15 84.2067C1176.02 86.9314 1179.94 88.2938 1184.91 88.2938C1188.31 88.2938 1191.36 87.8459 1194.07 86.9501V76.2003Z" fill="#282C47"/>
<path fill-rule="evenodd" clip-rule="evenodd" d="M195.679 83.6107C195.679 89.3374 195.102 94.9297 194.002 100.333H159.271C152.363 119.817 133.725 133.777 111.817 133.777C84.0271 133.777 61.4992 111.317 61.4992 83.6105C61.4992 55.9044 84.0271 33.4442 111.817 33.4442C133.725 33.4442 152.364 47.4039 159.271 66.8885H194.002C195.102 72.2916 195.679 77.8839 195.679 83.6107ZM194.002 66.8885C186.231 28.7246 152.389 0 111.817 0C71.2446 0 37.4019 28.7246 29.6317 66.8885H0.00012207V100.333H29.6316C37.4018 138.497 71.2446 167.221 111.817 167.221C152.389 167.221 186.231 138.497 194.002 100.333H223.633V66.8885H194.002Z" fill="#266AD2"/>
<path fill-rule="evenodd" clip-rule="evenodd" d="M111.816 105.907C124.167 105.907 134.18 95.9244 134.18 83.6106C134.18 71.2967 124.167 61.3144 111.816 61.3144C99.4655 61.3144 89.4531 71.2967 89.4531 83.6106C89.4531 95.9244 99.4655 105.907 111.816 105.907Z" fill="#266AD2"/>
</svg>
