<svg width="32" height="32" viewBox="0 0 32 32" fill="none" xmlns="http://www.w3.org/2000/svg">
<circle cx="16" cy="16" r="16" fill="#93B5E9" fill-opacity="0.25"/>
<path d="M22.7556 18.4889C21.7778 18.4889 20.8 18.3111 19.9111 18.0444C19.4667 17.8667 19.0222 18.0444 18.6667 18.3111L16.8889 19.6444C14.9333 18.6667 13.4222 17.1556 12.4444 15.2L13.7778 13.4222C14.1333 13.0667 14.2222 12.5333 14.1333 12.0889C13.8667 11.2 13.6889 10.2222 13.6889 9.24444C13.6 8.53333 12.9778 8 12.2667 8C12.2667 8 12.2667 8 12.1778 8H9.24444C8.53333 8 8 8.53333 8 9.24444C8 17.4222 14.5778 24 22.7556 24C23.4667 24 24 23.4667 24 22.7556V19.8222C24 19.1111 23.4667 18.4889 22.7556 18.4889Z" fill="#266AD2"/>
</svg>
