<svg width="28" height="29" viewBox="0 0 28 29" fill="none" xmlns="http://www.w3.org/2000/svg">
<g filter="url(#filter0_dd)">
<circle cx="14" cy="14" r="12" fill="white"/>
</g>
<path d="M10 11.2639C10.0391 10.295 10.3878 9.51015 11.0463 8.90934C11.7048 8.30311 12.6228 8 13.8002 8C14.8996 8 15.7896 8.28417 16.4704 8.8525C17.1568 9.42084 17.5 10.1488 17.5 11.0365C17.5 12.2057 16.9141 13.1313 15.7422 13.8133C15.2065 14.1218 14.841 14.4087 14.6456 14.6739C14.4503 14.9337 14.3527 15.2693 14.3527 15.6806V16.1678H12.62L12.6116 15.5507C12.5893 14.977 12.7065 14.4926 12.9632 14.0974C13.2199 13.6969 13.6412 13.3261 14.2271 12.9851C14.7405 12.6874 15.0977 12.4032 15.2985 12.1326C15.4994 11.8566 15.5999 11.5156 15.5999 11.1096C15.5999 10.6604 15.4269 10.2923 15.0809 10.0054C14.7349 9.71313 14.2773 9.56698 13.7081 9.56698C13.1334 9.56698 12.6702 9.72124 12.3186 10.0298C11.9671 10.3329 11.7718 10.7442 11.7327 11.2639H10ZM14.5201 19.659C14.2857 19.8863 13.976 20 13.591 20C13.2059 20 12.8934 19.8863 12.6535 19.659C12.4135 19.4317 12.2935 19.134 12.2935 18.7659C12.2935 18.3924 12.4135 18.092 12.6535 17.8647C12.8934 17.6319 13.2059 17.5156 13.591 17.5156C13.976 17.5156 14.2857 17.6292 14.5201 17.8566C14.76 18.0839 14.88 18.387 14.88 18.7659C14.88 19.134 14.76 19.4317 14.5201 19.659Z" fill="#7E8091"/>
<defs>
<filter id="filter0_dd" x="0.5" y="0.5" width="27" height="28.5" filterUnits="userSpaceOnUse" color-interpolation-filters="sRGB">
<feFlood flood-opacity="0" result="BackgroundImageFix"/>
<feColorMatrix in="SourceAlpha" type="matrix" values="0 0 0 0 0 0 0 0 0 0 0 0 0 0 0 0 0 0 127 0"/>
<feOffset dy="1.5"/>
<feGaussianBlur stdDeviation="0.75"/>
<feColorMatrix type="matrix" values="0 0 0 0 0.0352941 0 0 0 0 0.117647 0 0 0 0 0.258824 0 0 0 0.15 0"/>
<feBlend mode="normal" in2="BackgroundImageFix" result="effect1_dropShadow"/>
<feColorMatrix in="SourceAlpha" type="matrix" values="0 0 0 0 0 0 0 0 0 0 0 0 0 0 0 0 0 0 127 0"/>
<feOffset/>
<feGaussianBlur stdDeviation="0.75"/>
<feColorMatrix type="matrix" values="0 0 0 0 0.0352941 0 0 0 0 0.117647 0 0 0 0 0.258824 0 0 0 0.31 0"/>
<feBlend mode="normal" in2="effect1_dropShadow" result="effect2_dropShadow"/>
<feBlend mode="normal" in="SourceGraphic" in2="effect2_dropShadow" result="shape"/>
</filter>
</defs>
</svg>
