<svg width="84" height="13" viewBox="0 0 84 13" fill="none" xmlns="http://www.w3.org/2000/svg">
<path fill-rule="evenodd" clip-rule="evenodd" d="M13.8596 5.41965C13.8056 5.26586 13.6499 5.16049 13.4738 5.15696L8.87432 5.07175L7.3642 1.13998C7.30579 0.987965 6.97324 0.885864 6.97324 0.885864C6.97324 0.885864 6.64014 0.987713 6.58201 1.13998L5.07244 5.072L0.472096 5.15696C0.295764 5.16049 0.140371 5.26586 0.0863696 5.41965C0.0320923 5.57368 0.0910534 5.74208 0.232119 5.83965L3.89487 8.3541L2.56411 12.3355C2.51231 12.4901 2.57293 12.6572 2.71537 12.7528C2.85782 12.848 3.05068 12.8511 3.1956 12.7591L6.97324 10.379L10.7512 12.7591C10.8225 12.8039 10.9043 12.8261 10.9865 12.8261C11.0724 12.8261 11.1587 12.8014 11.2319 12.7528C11.3738 12.6572 11.4344 12.4896 11.3826 12.3355L10.0511 8.3541L13.7141 5.83965C13.8554 5.74208 13.9144 5.57368 13.8596 5.41965Z" fill="#FF8B00"/>
<path fill-rule="evenodd" clip-rule="evenodd" d="M31.1525 5.41965C31.0985 5.26586 30.9429 5.16049 30.7668 5.15696L26.1673 5.07175L24.6572 1.13998C24.5988 0.987965 24.2662 0.885864 24.2662 0.885864C24.2662 0.885864 23.9331 0.987713 23.875 1.13998L22.3654 5.072L17.7651 5.15696C17.5887 5.16049 17.4333 5.26586 17.3793 5.41965C17.3251 5.57368 17.384 5.74208 17.5251 5.83965L21.1878 8.3541L19.8571 12.3355C19.8053 12.4901 19.8659 12.6572 20.0083 12.7528C20.1508 12.848 20.3436 12.8511 20.4886 12.7591L24.2662 10.379L28.0441 12.7591C28.1155 12.8039 28.1973 12.8261 28.2794 12.8261C28.3654 12.8261 28.4516 12.8014 28.5249 12.7528C28.6668 12.6572 28.7274 12.4896 28.6756 12.3355L27.344 8.3541L31.0071 5.83965C31.1484 5.74208 31.2074 5.57368 31.1525 5.41965Z" fill="#FF8B00"/>
<path fill-rule="evenodd" clip-rule="evenodd" d="M48.4455 5.41965C48.3915 5.26586 48.2358 5.16049 48.0598 5.15696L43.4603 5.07175L41.9501 1.13998C41.8917 0.987965 41.5592 0.885864 41.5592 0.885864C41.5592 0.885864 41.2261 0.987713 41.1679 1.13998L39.6584 5.072L35.058 5.15696C34.8817 5.16049 34.7263 5.26586 34.6723 5.41965C34.618 5.57368 34.677 5.74208 34.8181 5.83965L38.4808 8.3541L37.15 12.3355C37.0983 12.4901 37.1589 12.6572 37.3013 12.7528C37.4438 12.848 37.6366 12.8511 37.7815 12.7591L41.5592 10.379L45.3371 12.7591C45.4085 12.8039 45.4903 12.8261 45.5724 12.8261C45.6584 12.8261 45.7446 12.8014 45.8179 12.7528C45.9598 12.6572 46.0204 12.4896 45.9686 12.3355L44.637 8.3541L48.3 5.83965C48.4414 5.74208 48.5003 5.57368 48.4455 5.41965Z" fill="#FF8B00"/>
<path fill-rule="evenodd" clip-rule="evenodd" d="M65.7385 5.41965C65.6845 5.26586 65.5288 5.16049 65.3527 5.15696L60.7532 5.07175L59.2431 1.13998C59.1847 0.987965 58.8521 0.885864 58.8521 0.885864C58.8521 0.885864 58.519 0.987713 58.4609 1.13998L56.9513 5.072L52.351 5.15696C52.1747 5.16049 52.0193 5.26586 51.9653 5.41965C51.911 5.57368 51.97 5.74208 52.111 5.83965L55.7738 8.3541L54.443 12.3355C54.3912 12.4901 54.4518 12.6572 54.5943 12.7528C54.7367 12.848 54.9296 12.8511 55.0745 12.7591L58.8521 10.379L62.6301 12.7591C62.7014 12.8039 62.7833 12.8261 62.8654 12.8261C62.9513 12.8261 63.0376 12.8014 63.1108 12.7528C63.2527 12.6572 63.3134 12.4896 63.2616 12.3355L61.93 8.3541L65.593 5.83965C65.7343 5.74208 65.7933 5.57368 65.7385 5.41965Z" fill="#FF8B00"/>
<mask id="mask0" mask-type="alpha" maskUnits="userSpaceOnUse" x="69" y="0" width="15" height="13">
<path fill-rule="evenodd" clip-rule="evenodd" d="M83.0393 5.41965C82.9853 5.26586 82.8296 5.16049 82.6535 5.15696L78.054 5.07175L76.5439 1.13998C76.4855 0.987965 76.1529 0.885864 76.1529 0.885864C76.1529 0.885864 75.8198 0.987713 75.7617 1.13998L74.2521 5.072L69.6518 5.15696C69.4755 5.16049 69.3201 5.26586 69.2661 5.41965C69.2118 5.57368 69.2707 5.74208 69.4118 5.83965L73.0746 8.3541L71.7438 12.3355C71.692 12.4901 71.7526 12.6572 71.8951 12.7528C72.0375 12.848 72.2304 12.8511 72.3753 12.7591L76.1529 10.379L79.9308 12.7591C80.0022 12.8039 80.084 12.8261 80.1661 12.8261C80.2521 12.8261 80.3383 12.8014 80.4116 12.7528C80.5535 12.6572 80.6141 12.4896 80.5623 12.3355L79.2308 8.3541L82.8938 5.83965C83.0351 5.74208 83.0941 5.57368 83.0393 5.41965Z" fill="#FF8B00"/>
</mask>
<g mask="url(#mask0)">
<path fill-rule="evenodd" clip-rule="evenodd" d="M83.0393 5.41965C82.9853 5.26586 82.8296 5.16049 82.6535 5.15696L78.054 5.07175L76.5439 1.13998C76.4855 0.987965 76.1529 0.885864 76.1529 0.885864C76.1529 0.885864 75.8198 0.987713 75.7617 1.13998L74.2521 5.072L69.6518 5.15696C69.4755 5.16049 69.3201 5.26586 69.2661 5.41965C69.2118 5.57368 69.2707 5.74208 69.4118 5.83965L73.0746 8.3541L71.7438 12.3355C71.692 12.4901 71.7526 12.6572 71.8951 12.7528C72.0375 12.848 72.2304 12.8511 72.3753 12.7591L76.1529 10.379L79.9308 12.7591C80.0022 12.8039 80.084 12.8261 80.1661 12.8261C80.2521 12.8261 80.3383 12.8014 80.4116 12.7528C80.5535 12.6572 80.6141 12.4896 80.5623 12.3355L79.2308 8.3541L82.8938 5.83965C83.0351 5.74208 83.0941 5.57368 83.0393 5.41965Z" fill="#FF8B00"/>
<rect x="79" width="6" height="14" fill="#DFE0E9"/>
</g>
</svg>
