<svg width="10" height="8" viewBox="0 0 10 8" fill="none" xmlns="http://www.w3.org/2000/svg">
<path d="M9.64425 1.2496L8.48092 0.0829342C8.46157 0.0635329 8.43858 0.0481401 8.41327 0.0376374C8.38796 0.0271347 8.36082 0.0217285 8.33342 0.0217285C8.30602 0.0217285 8.27888 0.0271347 8.25357 0.0376374C8.22826 0.0481401 8.20527 0.0635329 8.18592 0.0829342L3.27259 4.9996C3.25323 5.019 3.23024 5.0344 3.20493 5.0449C3.17962 5.0554 3.15249 5.06081 3.12509 5.06081C3.09768 5.06081 3.07055 5.0554 3.04524 5.0449C3.01993 5.0344 2.99694 5.019 2.97759 4.9996L1.81425 3.83293C1.7949 3.81353 1.77191 3.79814 1.7466 3.78764C1.72129 3.77713 1.69416 3.77173 1.66675 3.77173C1.63935 3.77173 1.61222 3.77713 1.58691 3.78764C1.56159 3.79814 1.5386 3.81353 1.51925 3.83293L0.355919 4.9996C0.316863 5.03867 0.294922 5.09165 0.294922 5.14689C0.294922 5.20214 0.316863 5.25512 0.355919 5.29418L2.97759 7.91627C2.99694 7.93567 3.01993 7.95106 3.04524 7.96156C3.07055 7.97207 3.09768 7.97747 3.12509 7.97747C3.15249 7.97747 3.17962 7.97207 3.20493 7.96156C3.23024 7.95106 3.25323 7.93567 3.27259 7.91627L9.64425 1.54127C9.68242 1.50232 9.70381 1.44997 9.70381 1.39543C9.70381 1.3409 9.68242 1.28854 9.64425 1.2496Z" fill="white"/>
</svg>
